<?xml version="1.0" standalone="no"?>
<svg xmlns="http://www.w3.org/2000/svg" version="1.1" xmlns:xlink="http://www.w3.org/1999/xlink" width="512" height="512" x="0" y="0" viewBox="0 0 512 512" style="enable-background:new 0 0 512 512" xml:space="preserve" class=""><g><path d="M469.2 80.4H42.8C20.3 80.4 2 98.7 2 121.2v160.5c0 22.5 18.3 40.8 40.8 40.8h426.5c22.5 0 40.8-18.3 40.8-40.8V121.2c-.1-22.5-18.4-40.8-40.9-40.8zm12.6 201.3c0 6.9-5.6 12.5-12.5 12.5H42.8c-6.9 0-12.5-5.6-12.5-12.5V121.2c0-6.9 5.6-12.5 12.5-12.5h426.5c6.9 0 12.5 5.6 12.5 12.5z" fill="#3e185b" opacity="1" data-original="#000000" class=""/><path d="M441.3 240.2H70.7c-7.8 0-14.1 6.3-14.1 14.1s6.3 14.1 14.1 14.1h370.7c7.8 0 14.1-6.3 14.1-14.1s-6.4-14.1-14.2-14.1zM442.6 133c-7.8 0-14.1 6.3-14.1 14.1v4.7c0 7.8 6.3 14.1 14.1 14.1s14.1-6.3 14.1-14.1v-4.7c0-7.8-6.3-14.1-14.1-14.1zM442.6 186.4c-7.8 0-14.1 6.3-14.1 14.1v4.7c0 7.8 6.3 14.1 14.1 14.1s14.1-6.3 14.1-14.1v-4.7c0-7.7-6.3-14.1-14.1-14.1zM106.9 344.1c-7.6-1.9-15.2 2.7-17.1 10.3l-10.5 41.8c-1.9 7.6 2.7 15.3 10.3 17.1 8.7 2 15.5-3.9 17.1-10.3l10.5-41.8c1.9-7.5-2.7-15.2-10.3-17.1zM206.3 360.4c-7.8-.7-14.6 5.1-15.2 12.9l-3.5 43c-.6 7.8 5.1 14.8 12.9 15.2 8.1.5 14.6-5.5 15.2-12.9l3.5-43c.7-7.7-5.1-14.5-12.9-15.2zM422.2 354.4c-1.9-7.6-9.6-12.1-17.1-10.3-7.6 1.9-12.2 9.6-10.3 17.1l10.5 41.8c1.6 6.4 8.5 12.3 17.1 10.3 7.6-1.8 12.2-9.6 10.3-17.1zM305.7 360.4c-7.8.6-13.6 7.4-12.9 15.2l3.5 43c.6 7.4 7.2 13.4 15.2 12.9 7.8-.5 13.5-7.4 12.9-15.2l-3.5-43c-.7-7.7-7.4-13.6-15.2-12.9z" fill="#3e185b" opacity="1" data-original="#000000" class=""/></g></svg>