<svg width="26" height="26" viewBox="0 0 26 26" fill="none" xmlns="http://www.w3.org/2000/svg">
<path d="M18.4167 14.0833H14.0833V18.4167C14.0833 18.704 13.9692 18.9795 13.766 19.1827C13.5629 19.3859 13.2873 19.5 13 19.5C12.7127 19.5 12.4371 19.3859 12.234 19.1827C12.0308 18.9795 11.9167 18.704 11.9167 18.4167V14.0833H7.58333C7.29602 14.0833 7.02047 13.9692 6.8173 13.766C6.61414 13.5629 6.5 13.2873 6.5 13C6.5 12.7127 6.61414 12.4371 6.8173 12.234C7.02047 12.0308 7.29602 11.9167 7.58333 11.9167H11.9167V7.58333C11.9167 7.29601 12.0308 7.02046 12.234 6.8173C12.4371 6.61414 12.7127 6.5 13 6.5C13.2873 6.5 13.5629 6.61414 13.766 6.8173C13.9692 7.02046 14.0833 7.29601 14.0833 7.58333V11.9167H18.4167C18.704 11.9167 18.9795 12.0308 19.1827 12.234C19.3859 12.4371 19.5 12.7127 19.5 13C19.5 13.2873 19.3859 13.5629 19.1827 13.766C18.9795 13.9692 18.704 14.0833 18.4167 14.0833Z" fill="#9A78B4"/>
</svg>
