<?xml version="1.0" standalone="no"?>
<svg xmlns="http://www.w3.org/2000/svg" version="1.1" xmlns:xlink="http://www.w3.org/1999/xlink" width="512" height="512" x="0" y="0" viewBox="0 0 510 510" style="enable-background:new 0 0 512 512" xml:space="preserve" fill-rule="evenodd"><g><path d="M126.316 474.4H42.6a7 7 0 0 1-7-7V42.6a7 7 0 0 1 7-7h82.902l71.307-27.142a6.998 6.998 0 0 1 9.49 6.542v20.6H467.4a7 7 0 0 1 7 7v424.8a7 7 0 0 1-7 7H206.299V495a7 7 0 0 1-9.515 6.533zM88.722 49.6H49.6v410.8h40.356l-26.367-10.152c-1.392-.445-3.02-1.97-3.646-3.036a6.97 6.97 0 0 1-.964-3.545V65.747a6.995 6.995 0 0 1 4.636-6.59zm103.577-7V25.154l-62.901 23.943c-.081.032-.163.063-.244.093L72.979 70.572v368.29l57.028 21.957.243.094 62.049 23.891zm14 417.8H460.4V49.6H206.299v9.147h37.62a7 7 0 0 1 7 7v377.92a7 7 0 0 1-7 7h-37.62zm0-387.653v363.92h30.62V72.747zm-20.955-27.349v419.079a7 7 0 0 1-9.515 6.533l-91.41-35.196a7.001 7.001 0 0 1-4.485-6.533V80.192a7 7 0 0 1 4.51-6.542l91.41-34.794a6.998 6.998 0 0 1 9.49 6.542zm-14 202.602V55.552l-77.41 29.465v339.458l77.41 29.806V262h-17.646c-3.863 0-7-3.137-7-7s3.137-7 7-7zm-34.281 119.309c5.809 6.39 13.849 10.973 24.157 13.823a7 7 0 0 1 2.433 12.272c-8.095 6.297-12.343 13.873-13.192 22.622a7 7 0 0 1-13.246 2.418c-3.889-7.892-11.393-11.311-21.64-11.969a6.999 6.999 0 0 1-4.236-12.188c7.485-6.738 12.075-14.531 13.65-23.482a7 7 0 0 1 12.074-3.496zm-1.593 17.178a52.77 52.77 0 0 1-5.882 10.402c4.034 1.321 7.6 3.166 10.692 5.555 1.557-3.416 3.588-6.673 6.125-9.757-4.003-1.784-7.644-3.855-10.935-6.2zm315.936-318.74v377.92a7 7 0 0 1-7 7h-177.94a7 7 0 0 1-7-7V65.747a7 7 0 0 1 7-7h177.94a7 7 0 0 1 7 7zm-14 7h-163.94v363.92h163.94zm-5.213 12.331v339.674a7 7 0 0 1-7 7H287.507a7 7 0 0 1-7-7V85.078a7 7 0 0 1 7-7h137.686a7 7 0 0 1 7 7zM294.507 262v155.752h123.686V92.078H294.507V248h30.408c3.863 0 7 3.137 7 7s-3.137 7-7 7zm88.427-140.519c3.958 7.675 10.538 14.183 19.757 19.604a7 7 0 0 1-.826 12.483c-9.449 3.988-15.513 10.205-18.597 18.437a7 7 0 0 1-13.421-1.093c-1.714-8.629-8.077-13.874-17.805-17.162a7 7 0 0 1-.937-12.869c8.973-4.571 15.424-10.91 19.263-19.149a7 7 0 0 1 12.566-.251zm-5.984 16.18a52.797 52.797 0 0 1-8.373 8.525c3.554 2.32 6.521 5.025 8.889 8.133 2.388-2.897 5.193-5.517 8.442-7.84-3.405-2.759-6.386-5.702-8.958-8.818zm-32.292-35.489c2.865 5.558 7.651 10.249 14.326 14.174a7.002 7.002 0 0 1-.826 12.484c-6.678 2.818-10.987 7.189-13.167 13.006a6.998 6.998 0 0 1-7.123 4.521 6.998 6.998 0 0 1-6.298-5.613c-1.182-5.951-5.667-9.465-12.375-11.732a7 7 0 0 1-.936-12.869c6.436-3.279 11.079-7.81 13.832-13.719a6.999 6.999 0 0 1 12.567-.252zm-6.007 15.673a41.634 41.634 0 0 1-3.615 3.691 28.085 28.085 0 0 1 4.013 3.674 34.92 34.92 0 0 1 3.643-3.386 49.255 49.255 0 0 1-4.041-3.979z" fill="#3e185b" opacity="1" data-original="#000000"/></g></svg>