<svg width="42" height="42" viewBox="0 0 42 42" fill="none" xmlns="http://www.w3.org/2000/svg">
<path d="M29.9478 0H1.59575V9.22597H29.9477V0H29.9478ZM12.3131 6.45865H5.51692V3.99771H12.3131L12.3131 6.45865ZM20.7217 6.45865H18.2608V3.99771H20.7217V6.45865ZM25.95 6.45865H23.4891V3.99771H25.95V6.45865ZM40.4042 23.0838C40.4042 19.6694 38.2218 16.7651 35.1761 15.6884V22.511H29.9479V15.6884C26.9021 16.7651 24.7197 19.6694 24.7197 23.0838C24.7197 26.4983 26.9021 29.4026 29.9479 30.4793L28.8568 37.6921C28.5137 39.9592 30.269 42 32.5619 42C34.8547 42 36.6101 39.9592 36.2671 37.6921L35.176 30.4793C38.2218 29.4026 40.4042 26.4984 40.4042 23.0838Z" fill="#3E185B"/>
<path d="M24.6736 29.7061C22.9238 32.8186 19.5896 34.9264 15.7718 34.9264C10.1448 34.9264 5.56688 30.3485 5.56688 24.7215C5.56688 19.0945 10.1448 14.5166 15.7718 14.5166C18.88 14.5166 21.6676 15.9139 23.5408 18.1126C24.735 15.9479 26.6949 14.2281 29.1276 13.3681L29.9477 13.0782V11.6869H1.59575V38.9242H26.3911C26.3328 38.3917 26.3437 37.8539 26.4234 37.3241L27.2426 31.9089C26.2707 31.3212 25.4027 30.5769 24.6736 29.7061Z" fill="#3E185B"/>
<path d="M15.7718 32.4654C19.1818 32.4654 22.0817 30.249 23.1125 27.182C22.8934 26.6782 22.7151 26.1576 22.5791 25.6254C22.242 25.6553 21.9243 25.7256 21.6801 25.8372L21.6664 25.8434C21.0098 26.1434 20.1866 26.2933 19.364 26.2933C18.5418 26.2933 17.7201 26.1436 17.0647 25.8442L17.0522 25.8385C16.3806 25.5318 15.1629 25.5318 14.4943 25.8372L14.4806 25.8434C13.1676 26.4432 11.19 26.4432 9.87894 25.8442L9.86639 25.8385C9.40947 25.6298 8.6999 25.5634 8.08229 25.6383C8.53732 29.4778 11.812 32.4654 15.7718 32.4654ZM15.7718 16.9775C12.0355 16.9775 8.90867 19.6373 8.1854 23.1629C9.13631 23.1063 10.1236 23.2505 10.886 23.5987L10.9055 23.6076C11.5701 23.9112 12.7878 23.9112 13.4563 23.6058L13.4726 23.5984C14.783 22.9999 16.7605 22.9998 18.0716 23.5987L18.0912 23.6076C18.7558 23.9112 19.9735 23.9112 20.642 23.6058L20.6583 23.5984C21.1272 23.3842 21.6816 23.2475 22.2602 23.1871C22.2599 23.1526 22.2585 23.1183 22.2585 23.0839C22.2585 22.3353 22.3418 21.6008 22.4974 20.8893C21.1622 18.5548 18.6483 16.9775 15.7718 16.9775Z" fill="#3E185B"/>
</svg>
