<svg width="57" height="57" viewBox="0 0 57 57" fill="none" xmlns="http://www.w3.org/2000/svg">
<path d="M13.0475 23.5919L23.9487 12.6906C24.3937 12.2483 24.9957 12 25.6231 12C26.2505 12 26.8525 12.2483 27.2975 12.6906C27.5201 12.9114 27.6968 13.1741 27.8173 13.4635C27.9379 13.7529 28 14.0634 28 14.3769C28 14.6904 27.9379 15.0008 27.8173 15.2903C27.6968 15.5797 27.5201 15.8423 27.2975 16.0631L16.3725 26.9406C16.1499 27.1614 15.9732 27.4241 15.8526 27.7135C15.732 28.0029 15.67 28.3134 15.67 28.6269C15.67 28.9404 15.732 29.2508 15.8526 29.5403C15.9732 29.8297 16.1499 30.0923 16.3725 30.3131L27.2975 41.1906C27.7447 41.6347 27.9972 42.2382 27.9994 42.8685C28.0017 43.4987 27.7534 44.104 27.3094 44.5513C26.8653 44.9985 26.2617 45.251 25.6315 45.2532C25.0013 45.2554 24.3959 45.0072 23.9487 44.5631L13.0475 33.6619C11.7132 32.3259 10.9637 30.515 10.9637 28.6269C10.9637 26.7388 11.7132 24.9278 13.0475 23.5919Z" fill="white"/>
</svg>
