<svg width="57" height="57" viewBox="0 0 57 57" fill="none" xmlns="http://www.w3.org/2000/svg">
<path d="M43.9525 23.5919L33.0513 12.6906C32.6063 12.2483 32.0043 12 31.3769 12C30.7495 12 30.1475 12.2483 29.7025 12.6906C29.4799 12.9114 29.3032 13.1741 29.1827 13.4635C29.0621 13.7529 29 14.0634 29 14.3769C29 14.6904 29.0621 15.0008 29.1827 15.2903C29.3032 15.5797 29.4799 15.8423 29.7025 16.0631L40.6275 26.9406C40.8501 27.1614 41.0268 27.4241 41.1474 27.7135C41.268 28.0029 41.33 28.3134 41.33 28.6269C41.33 28.9404 41.268 29.2508 41.1474 29.5403C41.0268 29.8297 40.8501 30.0923 40.6275 30.3131L29.7025 41.1906C29.2553 41.6347 29.0028 42.2382 29.0006 42.8685C28.9983 43.4987 29.2466 44.104 29.6906 44.5513C30.1347 44.9985 30.7383 45.251 31.3685 45.2532C31.9987 45.2554 32.6041 45.0072 33.0513 44.5631L43.9525 33.6619C45.2868 32.3259 46.0363 30.515 46.0363 28.6269C46.0363 26.7388 45.2868 24.9278 43.9525 23.5919Z" fill="white"/>
</svg>
