<svg width="27" height="24" viewBox="0 0 27 24" fill="none" xmlns="http://www.w3.org/2000/svg">
<path d="M13.1266 16.8653C12.3927 16.8653 11.7774 17.4805 11.7774 18.2145C11.7774 18.9485 12.3927 19.5637 13.1266 19.5637C13.8336 19.5637 14.4759 18.9485 14.4435 18.2469C14.4759 17.4751 13.866 16.8653 13.1266 16.8653Z" fill="#A381BC"/>
<path d="M25.615 21.647C26.4624 20.1844 26.4678 18.4412 25.6258 16.984L17.1743 2.34765C16.3378 0.874297 14.8266 0 13.132 0C11.4374 0 9.92627 0.879694 9.08975 2.34225L0.627415 16.9948C-0.214501 18.4682 -0.209104 20.2222 0.643606 21.6847C1.48552 23.1311 2.99126 24 4.67509 24H21.5566C23.2458 24 24.7623 23.1203 25.615 21.647ZM23.7801 20.5892C23.3106 21.3987 22.4794 21.879 21.5512 21.879H4.66969C3.75222 21.879 2.92649 21.4095 2.46776 20.6161C2.00362 19.812 1.99823 18.8514 2.46236 18.0418L10.9247 3.39465C11.3834 2.59051 12.2038 2.11558 13.132 2.11558C14.0549 2.11558 14.8806 2.59591 15.3394 3.40005L23.7963 18.0472C24.2496 18.8352 24.2442 19.785 23.7801 20.5892Z" fill="#A381BC"/>
<path d="M12.792 7.3938C12.1498 7.5773 11.7504 8.16016 11.7504 8.86716C11.7828 9.29351 11.8098 9.72526 11.8422 10.1516C11.9339 11.7761 12.0257 13.3682 12.1174 14.9926C12.1498 15.5431 12.5762 15.9425 13.1266 15.9425C13.6771 15.9425 14.1089 15.5161 14.1359 14.9603C14.1359 14.6256 14.1359 14.318 14.1682 13.978C14.2276 12.9364 14.2924 11.8948 14.3517 10.8532C14.3841 10.1786 14.4435 9.50399 14.4759 8.82938C14.4759 8.58652 14.4435 8.37064 14.3517 8.15477C14.0765 7.55031 13.4343 7.24269 12.792 7.3938Z" fill="#A381BC"/>
</svg>
