<svg width="40" height="40" viewBox="0 0 40 40" fill="none" xmlns="http://www.w3.org/2000/svg">
<path d="M20 5C21.0833 5 22.1333 5.16667 23.1167 5.5L20.2667 8.35C20.1833 8.33333 20.0833 8.33333 20 8.33333C16.3167 8.33333 13.3333 11.3167 13.3333 15V18.75C13.3333 19.6667 12.5833 20.4167 11.6667 20.4167C10.75 20.4167 10 19.6667 10 18.75V15C10 9.48333 14.4833 5 20 5ZM30 15V18.75C30 19.6667 29.25 20.4167 28.3333 20.4167C27.4167 20.4167 26.6667 19.6667 26.6667 18.75V15C26.6667 13.95 26.4167 12.95 25.9833 12.0667L28.4167 9.63333C29.4333 11.1833 30 13.0167 30 15ZM29.5833 5C29.3359 5.00011 29.094 4.9268 28.8883 4.78935C28.6826 4.65191 28.5223 4.4565 28.4277 4.22789C28.3331 3.99927 28.3085 3.74773 28.357 3.50511C28.4055 3.2625 28.5248 3.03972 28.7 2.865L29.5333 2.03167C29.6494 1.91556 29.7873 1.82345 29.939 1.76061C30.0907 1.69778 30.2533 1.66543 30.4175 1.66543C30.5817 1.66543 30.7443 1.69778 30.896 1.76061C31.0477 1.82345 31.1856 1.91556 31.3017 2.03167C31.4178 2.14778 31.5099 2.28562 31.5727 2.43733C31.6356 2.58903 31.6679 2.75163 31.6679 2.91583C31.6679 3.08004 31.6356 3.24264 31.5727 3.39434C31.5099 3.54605 31.4178 3.68389 31.3017 3.8L30.4683 4.63333C30.3523 4.74979 30.2143 4.84214 30.0625 4.90506C29.9106 4.96799 29.7477 5.00026 29.5833 5ZM32.0833 9.16667H31.25C30.9185 9.16667 30.6005 9.03497 30.3661 8.80055C30.1317 8.56613 30 8.24819 30 7.91667C30 7.58515 30.1317 7.2672 30.3661 7.03278C30.6005 6.79836 30.9185 6.66667 31.25 6.66667H32.0833C32.4149 6.66667 32.7328 6.79836 32.9672 7.03278C33.2016 7.2672 33.3333 7.58515 33.3333 7.91667C33.3333 8.24819 33.2016 8.56613 32.9672 8.80055C32.7328 9.03497 32.4149 9.16667 32.0833 9.16667ZM25.4167 3.33333C25.0851 3.33333 24.7672 3.20164 24.5328 2.96722C24.2984 2.7328 24.1667 2.41485 24.1667 2.08333V1.25C24.1667 0.918479 24.2984 0.600537 24.5328 0.366116C24.7672 0.131696 25.0851 0 25.4167 0C25.7482 0 26.0661 0.131696 26.3006 0.366116C26.535 0.600537 26.6667 0.918479 26.6667 1.25V2.08333C26.6667 2.41485 26.535 2.7328 26.3006 2.96722C26.0661 3.20164 25.7482 3.33333 25.4167 3.33333Z" fill="#3E185B"/>
<path d="M29.5834 18.3334H10.4167C9.42253 18.3347 8.46947 18.7302 7.7665 19.4332C7.06352 20.1362 6.66801 21.0892 6.66669 22.0834V36.25C6.66669 38.3184 8.35002 40 10.4167 40H29.5834C31.65 40 33.3334 38.3184 33.3334 36.25V22.0834C33.3334 20.015 31.65 18.3334 29.5834 18.3334ZM21.6667 29.5367V33.3334C21.6667 33.7754 21.4911 34.1993 21.1785 34.5119C20.866 34.8244 20.442 35 20 35C19.558 35 19.1341 34.8244 18.8215 34.5119C18.5089 34.1993 18.3334 33.7754 18.3334 33.3334V29.5367C17.3417 28.9584 16.6667 27.895 16.6667 26.6667C16.6667 24.8284 18.1617 23.3334 20 23.3334C21.8384 23.3334 23.3334 24.8284 23.3334 26.6667C23.3334 27.895 22.6584 28.9584 21.6667 29.5367Z" fill="#3E185B"/>
</svg>
