<?xml version="1.0" standalone="no"?>
<svg xmlns="http://www.w3.org/2000/svg" version="1.1" xmlns:xlink="http://www.w3.org/1999/xlink" width="512" height="512" x="0" y="0" viewBox="0 0 1000 1000" style="enable-background:new 0 0 512 512" xml:space="preserve"><g><path d="M453.67 900 493 764.53 446.74 605.2l-5.18-17.86 5.19-17.84 45-163.52H322.93A116.34 116.34 0 0 0 206.6 522.32v261.34A116.33 116.33 0 0 0 322.93 900ZM519.09 900l34.17-117.62 5.18-17.84-5.18-17.86L507 587.34 557.22 406h119.85A116.34 116.34 0 0 1 793.4 522.32v261.34A116.33 116.33 0 0 1 677.07 900ZM400.11 386V265.33a100.07 100.07 0 0 1 68.11-94.75l3-70.57A167.76 167.76 0 0 0 332.2 265.33V386ZM599.89 265.33V386h67.91V265.33A167.8 167.8 0 0 0 534.11 101l-3 69.35a100 100 0 0 1 68.79 95Z" fill="#3e185b" opacity="1" data-original="#000000"/></g></svg>