<svg width="19" height="18" viewBox="0 0 19 18" fill="none" xmlns="http://www.w3.org/2000/svg">
<g clip-path="url(#clip0_51_93)">
<path d="M14.322 1.5H13.572V0.75C13.572 0.551088 13.493 0.360322 13.3524 0.21967C13.2117 0.0790176 13.0209 0 12.822 0C12.6231 0 12.4323 0.0790176 12.2917 0.21967C12.151 0.360322 12.072 0.551088 12.072 0.75V1.5H6.07202V0.75C6.07202 0.551088 5.993 0.360322 5.85235 0.21967C5.7117 0.0790176 5.52093 0 5.32202 0C5.12311 0 4.93234 0.0790176 4.79169 0.21967C4.65104 0.360322 4.57202 0.551088 4.57202 0.75V1.5H3.82202C1.75427 1.5 0.0720215 3.18225 0.0720215 5.25V14.25C0.0720215 16.3177 1.75427 18 3.82202 18H14.322C16.3898 18 18.072 16.3177 18.072 14.25V5.25C18.072 3.18225 16.3898 1.5 14.322 1.5ZM3.82202 3H14.322C15.5625 3 16.572 4.0095 16.572 5.25V6H1.57202V5.25C1.57202 4.0095 2.58152 3 3.82202 3ZM14.322 16.5H3.82202C2.58152 16.5 1.57202 15.4905 1.57202 14.25V7.5H16.572V14.25C16.572 15.4905 15.5625 16.5 14.322 16.5ZM13.446 9.864C13.5144 9.93486 13.5682 10.0185 13.6043 10.1102C13.6404 10.2018 13.658 10.2997 13.6563 10.3981C13.6545 10.4966 13.6334 10.5938 13.5941 10.6841C13.5548 10.7744 13.4981 10.8561 13.4273 10.9245L9.87227 14.3505C9.45752 14.7653 8.89202 15 8.29127 15C7.69052 15 7.12502 14.766 6.70052 14.3407L5.01152 12.7717C4.87018 12.6353 4.788 12.4489 4.78265 12.2525C4.7773 12.0562 4.8492 11.8656 4.9829 11.7216C5.1166 11.5777 5.30142 11.492 5.49765 11.4829C5.69387 11.4738 5.88583 11.5421 6.03227 11.673L7.74077 13.2607C8.06552 13.5833 8.53802 13.5623 8.82002 13.2803L12.3855 9.84375C12.4564 9.7754 12.5401 9.72168 12.6318 9.68566C12.7235 9.64965 12.8213 9.63205 12.9198 9.63386C13.0183 9.63567 13.1154 9.65686 13.2057 9.69622C13.296 9.73558 13.3777 9.79233 13.446 9.86325V9.864Z" fill="#3E185B"/>
</g>
<defs>
<clipPath id="clip0_51_93">
<rect width="18" height="18" fill="white" transform="translate(0.0720215)"/>
</clipPath>
</defs>
</svg>
