<?xml version="1.0" standalone="no"?>
<svg xmlns="http://www.w3.org/2000/svg" version="1.1" xmlns:xlink="http://www.w3.org/1999/xlink" width="512" height="512" x="0" y="0" viewBox="0 0 452.923 452" style="enable-background:new 0 0 512 512" xml:space="preserve"><g><path d="m183.031 142.945 43.965 42.368 23.547-19.668-45.613-43.958a72.464 72.464 0 0 1-9.903 11.907 73.472 73.472 0 0 1-11.996 9.351zM99.348 215.703a14.366 14.366 0 0 0 0-20.914l-72.575-69.937c-6.238-5.918-16.02-5.918-22.257 0a14.36 14.36 0 0 0 0 20.91l72.574 69.941c6.238 5.91 16.015 5.91 22.258 0zM335.66 247.66v19.723c-.047 5.484-4.531 9.89-10.015 9.844h-3.266l63.16 60.867c6.242 5.914 16.016 5.914 22.258 0a14.36 14.36 0 0 0 0-20.91zM413.926 55.031 271.89 173.661l-.012.01L233 206.142l-.008.004-73.945 61.757 75.875 73.121 8.125-7.832v-30.836c.047-5.484 4.531-9.89 10.015-9.843h26.278v-25.13c.047-5.484 4.531-9.894 10.015-9.847h26.27v-25.12c.047-5.485 4.531-9.895 10.02-9.849h26.27v-25.125c.046-5.484 4.53-9.89 10.015-9.843h26.27v-25.125c.046-5.485 4.53-9.891 10.015-9.844h26.277v-25.125c.047-5.484 4.531-9.89 10.016-9.844h18.414zM227.938 361.855c-.008-.007-.02-.007-.028-.015l-90.726-87.43-3.02-2.914c-.043.02-19.262-14.547-64.598 29.145-6.636 6.394-7.351 9.464-7.351 10.488 0 3.344 6.508 9.61 13.394 16.246 8.856 8.531 19.106-.848 20.25-1.938a10.136 10.136 0 0 1 14.028 0l64.515 62.168a9.73 9.73 0 0 1 3 7.032 9.727 9.727 0 0 1-3 7.027c-1.562 1.555-5.734 6.785-5.695 11.734.012 1.598.406 4.082 3.676 7.235 16.539 15.941 17.183 16.547 28.308 5.828 45.207-43.57 30.137-61.79 29.98-61.969zm-31.223 8.59c-3.903 3.883-10.192 3.942-14.164.133l-54.434-52.453a9.716 9.716 0 0 1-3-6.934 9.706 9.706 0 0 1 2.863-6.988c3.903-3.879 10.188-3.937 14.165-.137l54.433 52.457c1.89 1.813 2.973 4.309 3 6.93s-1.008 5.14-2.863 6.992zM125.45 138.102a10 10 0 0 1 9.417-4.032 56.648 56.648 0 0 0 27.29-2.875c14.144-5.765 24.976-15.664 30.913-29.668a50.143 50.143 0 0 0 .008-37.367 9.735 9.735 0 0 1 2.652-10.96c13.508-11.837 41.606-33.997 69.934-41.298C240.996-.98 200.738-10.734 160.06 27.426a9.927 9.927 0 0 1-9.508 4.215c-17.305-2.45-34.137 2.859-46.242 14.527a50.233 50.233 0 0 0-15.016 44.105 9.784 9.784 0 0 1-4.035 9.41c-.223.153-.442.297-.672.438-12.426 11.688-23.266 18.422-31.719 22.3l48.824 47.052c4.063-8.328 11.204-19.063 23.758-31.371zm0 0" fill="#3e185b" opacity="1" data-original="#000000"/></g></svg>