<svg width="21" height="20" viewBox="0 0 21 20" fill="none" xmlns="http://www.w3.org/2000/svg">
<g clip-path="url(#clip0_51_118)">
<path d="M6.73867 0H4.23867C1.94117 0 0.0720062 1.86917 0.0720062 4.16667V6.66667C0.0720062 7.58583 0.819506 8.33333 1.73867 8.33333H6.73867C7.65784 8.33333 8.40534 7.58583 8.40534 6.66667V1.66667C8.40534 0.7475 7.65784 0 6.73867 0ZM1.73867 6.66667V4.16667C1.73867 2.78833 2.86034 1.66667 4.23867 1.66667H6.73867V6.66667H1.73867ZM11.7387 8.33333H16.7387C17.6578 8.33333 18.4053 7.58583 18.4053 6.66667V4.16667C18.4053 1.86917 16.5362 0 14.2387 0H11.7387C10.8195 0 10.072 0.7475 10.072 1.66667V6.66667C10.072 7.58583 10.8195 8.33333 11.7387 8.33333ZM11.7387 1.66667H14.2387C15.617 1.66667 16.7387 2.78833 16.7387 4.16667V6.66667H11.7387V1.66667ZM6.73867 10H1.73867C0.819506 10 0.0720062 10.7475 0.0720062 11.6667V14.1667C0.0720062 16.4642 1.94117 18.3333 4.23867 18.3333H6.73867C7.65784 18.3333 8.40534 17.5858 8.40534 16.6667V11.6667C8.40534 10.7475 7.65784 10 6.73867 10ZM4.23867 16.6667C2.86034 16.6667 1.73867 15.545 1.73867 14.1667V11.6667H6.73867V16.6667H4.23867ZM19.8278 18.5775L17.7112 16.4608C18.1637 15.7813 18.4052 14.9831 18.4053 14.1667C18.4053 11.8692 16.5362 10 14.2387 10C11.9412 10 10.072 11.8692 10.072 14.1667C10.072 16.4642 11.9412 18.3333 14.2387 18.3333C15.0551 18.3332 15.8533 18.0917 16.5328 17.6392L18.6495 19.7558C18.7267 19.8335 18.8185 19.8951 18.9196 19.9372C19.0207 19.9792 19.1292 20.0009 19.2387 20.0009C19.3482 20.0009 19.4566 19.9792 19.5577 19.9372C19.6588 19.8951 19.7506 19.8335 19.8278 19.7558C19.9053 19.6785 19.9667 19.5867 20.0087 19.4856C20.0506 19.3845 20.0722 19.2761 20.0722 19.1667C20.0722 19.0572 20.0506 18.9489 20.0087 18.8478C19.9667 18.7467 19.9053 18.6548 19.8278 18.5775ZM11.7387 14.1667C11.7387 12.7883 12.8603 11.6667 14.2387 11.6667C15.617 11.6667 16.7387 12.7883 16.7387 14.1667C16.7387 15.545 15.617 16.6667 14.2387 16.6667C12.8603 16.6667 11.7387 15.545 11.7387 14.1667Z" fill="#3E185B"/>
</g>
<defs>
<clipPath id="clip0_51_118">
<rect width="20" height="20" fill="white" transform="translate(0.0720062)"/>
</clipPath>
</defs>
</svg>
