<svg width="22" height="22" viewBox="0 0 22 22" fill="none" xmlns="http://www.w3.org/2000/svg">
<g clip-path="url(#clip0_574_103)">
<path d="M17.4167 0H4.58333C3.3682 0.00145554 2.20326 0.484808 1.34403 1.34403C0.484808 2.20326 0.00145554 3.3682 0 4.58333L0 17.4167C0.00145554 18.6318 0.484808 19.7967 1.34403 20.656C2.20326 21.5152 3.3682 21.9985 4.58333 22H17.4167C18.6318 21.9985 19.7967 21.5152 20.656 20.656C21.5152 19.7967 21.9985 18.6318 22 17.4167V4.58333C21.9985 3.3682 21.5152 2.20326 20.656 1.34403C19.7967 0.484808 18.6318 0.00145554 17.4167 0ZM20.1667 17.4167C20.1667 18.146 19.8769 18.8455 19.3612 19.3612C18.8455 19.8769 18.146 20.1667 17.4167 20.1667H4.58333C3.85399 20.1667 3.15451 19.8769 2.63879 19.3612C2.12306 18.8455 1.83333 18.146 1.83333 17.4167V4.58333C1.83333 3.85399 2.12306 3.15451 2.63879 2.63879C3.15451 2.12306 3.85399 1.83333 4.58333 1.83333H17.4167C18.146 1.83333 18.8455 2.12306 19.3612 2.63879C19.8769 3.15451 20.1667 3.85399 20.1667 4.58333V17.4167Z" fill="#5A3378"/>
<path d="M8.55523 14.5924L4.96281 11C4.79091 10.8281 4.55779 10.7316 4.31472 10.7316C4.07166 10.7316 3.83854 10.8281 3.66664 11C3.49479 11.1719 3.39825 11.405 3.39825 11.6481C3.39825 11.8911 3.49479 12.1243 3.66664 12.2962L7.25906 15.8886C7.42931 16.0589 7.63145 16.194 7.85393 16.2862C8.0764 16.3784 8.31486 16.4258 8.55568 16.4258C8.7965 16.4258 9.03496 16.3784 9.25744 16.2862C9.47992 16.194 9.68206 16.0589 9.85231 15.8886L18.3333 7.40757C18.5052 7.23567 18.6017 7.00256 18.6017 6.75949C18.6017 6.51642 18.5052 6.28331 18.3333 6.1114C18.1614 5.93956 17.9283 5.84302 17.6852 5.84302C17.4422 5.84302 17.209 5.93956 17.0371 6.1114L8.55523 14.5924Z" fill="#5A3378"/>
</g>
<defs>
<clipPath id="clip0_574_103">
<rect width="22" height="22" fill="white"/>
</clipPath>
</defs>
</svg>
