<svg width="29" height="28" viewBox="0 0 29 28" fill="none" xmlns="http://www.w3.org/2000/svg">
<path d="M28.7121 13.9868C28.7126 13.681 28.6441 13.379 28.5118 13.1031C28.3795 12.8272 28.1868 12.5843 27.9477 12.3924L26.1342 10.8882L26.965 8.73705C27.0727 8.4517 27.1156 8.14613 27.0904 7.84233C27.0653 7.53852 26.9729 7.24404 26.8197 6.98008C26.6666 6.71612 26.4566 6.48925 26.2048 6.3158C25.953 6.14235 25.6658 6.02664 25.3637 5.97699L23.0372 5.5764L22.6751 3.30006C22.625 2.99938 22.5087 2.71348 22.3345 2.4629C22.1602 2.21232 21.9324 2.00329 21.6673 1.85084C21.4022 1.6984 21.1065 1.60632 20.8015 1.58122C20.4964 1.55613 20.1896 1.59865 19.903 1.70572L17.6881 2.51891L16.2316 0.72628C16.0324 0.498245 15.7864 0.315413 15.5101 0.190123C15.2339 0.0648328 14.9339 0 14.6303 0C14.3268 0 14.0268 0.0648328 13.7505 0.190123C13.4743 0.315413 13.2282 0.498245 13.029 0.72628L11.5183 2.53293L9.3577 1.70572C9.07098 1.59847 8.76394 1.55584 8.45869 1.5809C8.15344 1.60597 7.85756 1.6981 7.59236 1.85067C7.32715 2.00323 7.09922 2.21244 6.92497 2.46324C6.75071 2.71403 6.63446 3.00017 6.5846 3.30106L6.18427 5.61846L3.89799 5.97499C3.59579 6.02464 3.3084 6.14038 3.05651 6.31388C2.80462 6.48738 2.5945 6.71432 2.44126 6.97837C2.28803 7.24242 2.19549 7.53701 2.17032 7.84094C2.14515 8.14487 2.18796 8.45057 2.29568 8.73604L3.11243 10.9423L1.31197 12.3914C1.07528 12.5849 0.884616 12.8283 0.75371 13.104C0.622805 13.3797 0.554909 13.6808 0.554909 13.9858C0.554909 14.2907 0.622805 14.5918 0.75371 14.8675C0.884616 15.1432 1.07528 15.3866 1.31197 15.5801L3.12651 17.0843L2.29568 19.2355C2.18814 19.5208 2.14544 19.8263 2.17064 20.1301C2.19584 20.4338 2.28833 20.7282 2.44144 20.9921C2.59455 21.2561 2.80449 21.4829 3.05616 21.6564C3.30784 21.8299 3.59499 21.9457 3.89698 21.9955L6.2235 22.3961L6.5856 24.6725C6.63563 24.9731 6.75195 25.259 6.9262 25.5096C7.10045 25.7602 7.32829 25.9692 7.59335 26.1217C7.85842 26.2741 8.15411 26.3662 8.45918 26.3913C8.76425 26.4164 9.07111 26.3739 9.3577 26.2668L11.5726 25.4536L13.029 27.2462C13.2234 27.4819 13.4678 27.6717 13.7447 27.8021C14.0216 27.9324 14.3241 28 14.6303 28C14.9366 28 15.2391 27.9324 15.516 27.8021C15.7928 27.6717 16.0373 27.4819 16.2316 27.2462L17.7424 25.4396L19.903 26.2668C20.1896 26.374 20.4966 26.4167 20.8018 26.3917C21.107 26.3667 21.4028 26.2746 21.668 26.1222C21.9332 25.9697 22.1611 25.7606 22.3354 25.51C22.5097 25.2593 22.6261 24.9733 22.6761 24.6725L23.0774 22.355L25.3627 21.9985C25.6649 21.9489 25.9523 21.8331 26.2042 21.6596C26.456 21.4861 26.6662 21.2592 26.8194 20.9951C26.9726 20.7311 27.0652 20.4365 27.0903 20.1326C27.1155 19.8286 27.0727 19.5229 26.965 19.2375L26.1482 17.0312L27.9487 15.5821C28.1876 15.3899 28.3802 15.1468 28.5123 14.8707C28.6444 14.5946 28.7127 14.2926 28.7121 13.9868Z" fill="#3E185B"/>
<path d="M28.7121 13.9868C28.7126 13.681 28.6441 13.379 28.5118 13.1031C28.3795 12.8272 28.1868 12.5843 27.9477 12.3924L26.1342 10.8882L26.965 8.73705C27.0727 8.4517 27.1156 8.14613 27.0904 7.84233C27.0653 7.53852 26.9729 7.24404 26.8197 6.98008C26.6666 6.71612 26.4566 6.48925 26.2048 6.3158C25.953 6.14235 25.6658 6.02664 25.3637 5.97699L23.0372 5.5764L22.6751 3.30006C22.625 2.99938 22.5087 2.71348 22.3345 2.4629C22.1602 2.21232 21.9324 2.00329 21.6673 1.85084C21.4022 1.6984 21.1065 1.60632 20.8015 1.58122C20.4964 1.55613 20.1896 1.59865 19.903 1.70572L17.6881 2.51891L16.2316 0.72628C16.0324 0.498245 15.7864 0.315413 15.5101 0.190123C15.2339 0.0648328 14.9339 0 14.6303 0C14.3268 0 14.0268 0.0648328 13.7505 0.190123C13.4743 0.315413 13.2282 0.498245 13.029 0.72628L11.5183 2.53293L9.3577 1.70572C9.07098 1.59847 8.76394 1.55584 8.45869 1.5809C8.15344 1.60597 7.85756 1.6981 7.59236 1.85067C7.32715 2.00323 7.09922 2.21244 6.92497 2.46324C6.75071 2.71403 6.63446 3.00017 6.5846 3.30106L6.18427 5.61846L3.89799 5.97499C3.59579 6.02464 3.3084 6.14038 3.05651 6.31388C2.80462 6.48738 2.5945 6.71432 2.44126 6.97837C2.28803 7.24242 2.19549 7.53701 2.17032 7.84094C2.14515 8.14487 2.18796 8.45057 2.29568 8.73604L3.11243 10.9423L1.31197 12.3914C1.07528 12.5849 0.884616 12.8283 0.75371 13.104C0.622805 13.3797 0.554909 13.6808 0.554909 13.9858C0.554909 14.2907 0.622805 14.5918 0.75371 14.8675C0.884616 15.1432 1.07528 15.3866 1.31197 15.5801L3.12651 17.0843L2.29568 19.2355C2.18814 19.5208 2.14544 19.8263 2.17064 20.1301C2.19584 20.4338 2.28833 20.7282 2.44144 20.9921C2.59455 21.2561 2.80449 21.4829 3.05616 21.6564C3.30784 21.8299 3.59499 21.9457 3.89698 21.9955L6.2235 22.3961L6.5856 24.6725C6.63563 24.9731 6.75195 25.259 6.9262 25.5096C7.10045 25.7602 7.32829 25.9692 7.59335 26.1217C7.85842 26.2741 8.15411 26.3662 8.45918 26.3913C8.76425 26.4164 9.07111 26.3739 9.3577 26.2668L11.5726 25.4536L13.029 27.2462C13.2234 27.4819 13.4678 27.6717 13.7447 27.8021C14.0216 27.9324 14.3241 28 14.6303 28C14.9366 28 15.2391 27.9324 15.516 27.8021C15.7928 27.6717 16.0373 27.4819 16.2316 27.2462L17.7424 25.4396L19.903 26.2668C20.1896 26.374 20.4966 26.4167 20.8018 26.3917C21.107 26.3667 21.4028 26.2746 21.668 26.1222C21.9332 25.9697 22.1611 25.7606 22.3354 25.51C22.5097 25.2593 22.6261 24.9733 22.6761 24.6725L23.0774 22.355L25.3627 21.9985C25.6649 21.9489 25.9523 21.8331 26.2042 21.6596C26.456 21.4861 26.6662 21.2592 26.8194 20.9951C26.9726 20.7311 27.0652 20.4365 27.0903 20.1326C27.1155 19.8286 27.0727 19.5229 26.965 19.2375L26.1482 17.0312L27.9487 15.5821C28.1876 15.3899 28.3802 15.1468 28.5123 14.8707C28.6444 14.5946 28.7127 14.2926 28.7121 13.9868Z" fill="#3E185B"/>
<path d="M12.7393 18.7095C12.0894 18.7112 11.4567 18.502 10.9369 18.1136L8.49469 16.2899C8.38901 16.211 8.29999 16.1122 8.23269 15.999C8.16539 15.8858 8.12114 15.7606 8.10246 15.6304C8.06473 15.3675 8.13346 15.1004 8.29352 14.8879C8.45358 14.6754 8.69186 14.5349 8.95594 14.4974C9.22003 14.4598 9.48828 14.5282 9.7017 14.6876L12.1439 16.5113C12.3555 16.6673 12.6199 16.735 12.8809 16.7003C13.1419 16.6655 13.379 16.5309 13.542 16.325L19.3678 8.86403C19.5319 8.6542 19.773 8.51785 20.038 8.48499C20.303 8.45212 20.5703 8.52542 20.7811 8.68877C20.9918 8.85212 21.1287 9.09213 21.1618 9.35601C21.1948 9.61988 21.1211 9.88601 20.9571 10.0958L15.1292 17.5548C14.8453 17.9156 14.4825 18.2071 14.0684 18.4072C13.6542 18.6073 13.1997 18.7107 12.7393 18.7095Z" fill="#F5F5F5"/>
</svg>
