<svg width="21" height="20" viewBox="0 0 21 20" fill="none" xmlns="http://www.w3.org/2000/svg">
<path d="M15.9054 12.5H15.072C14.851 12.5 14.6391 12.4122 14.4828 12.2559C14.3265 12.0996 14.2387 11.8877 14.2387 11.6667C14.2387 11.4457 14.3265 11.2337 14.4828 11.0774C14.6391 10.9211 14.851 10.8333 15.072 10.8333H15.9054C16.1264 10.8333 16.3383 10.9211 16.4946 11.0774C16.6509 11.2337 16.7387 11.4457 16.7387 11.6667C16.7387 11.8877 16.6509 12.0996 16.4946 12.2559C16.3383 12.4122 16.1264 12.5 15.9054 12.5ZM16.7387 15C16.7387 14.779 16.6509 14.567 16.4946 14.4107C16.3383 14.2545 16.1264 14.1667 15.9054 14.1667H15.072C14.851 14.1667 14.6391 14.2545 14.4828 14.4107C14.3265 14.567 14.2387 14.779 14.2387 15C14.2387 15.221 14.3265 15.433 14.4828 15.5893C14.6391 15.7455 14.851 15.8333 15.072 15.8333H15.9054C16.1264 15.8333 16.3383 15.7455 16.4946 15.5893C16.6509 15.433 16.7387 15.221 16.7387 15ZM13.4054 5C13.4054 4.77899 13.3176 4.56702 13.1613 4.41074C13.005 4.25446 12.7931 4.16667 12.572 4.16667H11.7387C11.5177 4.16667 11.3057 4.25446 11.1495 4.41074C10.9932 4.56702 10.9054 4.77899 10.9054 5C10.9054 5.22101 10.9932 5.43297 11.1495 5.58926C11.3057 5.74554 11.5177 5.83333 11.7387 5.83333H12.572C12.7931 5.83333 13.005 5.74554 13.1613 5.58926C13.3176 5.43297 13.4054 5.22101 13.4054 5ZM16.7387 5C16.7387 4.77899 16.6509 4.56702 16.4946 4.41074C16.3383 4.25446 16.1264 4.16667 15.9054 4.16667H15.072C14.851 4.16667 14.6391 4.25446 14.4828 4.41074C14.3265 4.56702 14.2387 4.77899 14.2387 5C14.2387 5.22101 14.3265 5.43297 14.4828 5.58926C14.6391 5.74554 14.851 5.83333 15.072 5.83333H15.9054C16.1264 5.83333 16.3383 5.74554 16.4946 5.58926C16.6509 5.43297 16.7387 5.22101 16.7387 5ZM16.7387 8.33333C16.7387 8.11232 16.6509 7.90036 16.4946 7.74408C16.3383 7.5878 16.1264 7.5 15.9054 7.5H15.072C14.851 7.5 14.6391 7.5878 14.4828 7.74408C14.3265 7.90036 14.2387 8.11232 14.2387 8.33333C14.2387 8.55435 14.3265 8.76631 14.4828 8.92259C14.6391 9.07887 14.851 9.16667 15.072 9.16667H15.9054C16.1264 9.16667 16.3383 9.07887 16.4946 8.92259C16.6509 8.76631 16.7387 8.55435 16.7387 8.33333ZM20.072 15.8333V4.16667C20.072 1.86917 18.2029 0 15.9054 0H11.7387C9.44121 0 7.57204 1.86917 7.57204 4.16667C7.57204 4.38768 7.65984 4.59964 7.81612 4.75592C7.9724 4.9122 8.18436 5 8.40537 5C8.62639 5 8.83835 4.9122 8.99463 4.75592C9.15091 4.59964 9.23871 4.38768 9.23871 4.16667C9.23871 2.78833 10.3604 1.66667 11.7387 1.66667H15.9054C17.2837 1.66667 18.4054 2.78833 18.4054 4.16667V15.8333C18.4054 17.2117 17.2837 18.3333 15.9054 18.3333H15.072C14.851 18.3333 14.6391 18.4211 14.4828 18.5774C14.3265 18.7337 14.2387 18.9457 14.2387 19.1667C14.2387 19.3877 14.3265 19.5996 14.4828 19.7559C14.6391 19.9122 14.851 20 15.072 20H15.9054C18.2029 20 20.072 18.1308 20.072 15.8333ZM13.4054 16.25V12.79C13.4071 12.1572 13.2639 11.5324 12.9867 10.9636C12.7095 10.3947 12.3057 9.8969 11.8062 9.50833L9.30621 7.55083C8.57366 6.9764 7.66963 6.66421 6.73871 6.66421C5.80779 6.66421 4.90376 6.9764 4.17121 7.55083L1.67121 9.5075C1.17166 9.89598 0.767768 10.3938 0.490553 10.9626C0.213339 11.5315 0.0701702 12.1563 0.0720396 12.7892V16.2492C0.0720396 18.3167 1.75454 19.9992 3.82204 19.9992H9.65537C11.7229 19.9992 13.4054 18.3175 13.4054 16.25ZM8.27954 8.86417L10.7795 10.8208C11.079 11.0541 11.3212 11.3529 11.4874 11.6942C11.6537 12.0355 11.7396 12.4103 11.7387 12.79V16.25C11.7387 17.3992 10.8045 18.3333 9.65537 18.3333H3.82204C3.26964 18.3329 2.73999 18.1133 2.34939 17.7227C1.95878 17.332 1.73915 16.8024 1.73871 16.25V12.79C1.73871 12.0158 2.08871 11.2983 2.69787 10.8208L5.19787 8.865C5.6372 8.51967 6.17976 8.33187 6.73856 8.33172C7.29736 8.33157 7.84003 8.51907 8.27954 8.86417ZM8.40537 15V13.3333C8.40537 13.1123 8.31758 12.9004 8.1613 12.7441C8.00502 12.5878 7.79305 12.5 7.57204 12.5H5.90537C5.68436 12.5 5.4724 12.5878 5.31612 12.7441C5.15984 12.9004 5.07204 13.1123 5.07204 13.3333V15C5.07204 15.221 5.15984 15.433 5.31612 15.5893C5.4724 15.7455 5.68436 15.8333 5.90537 15.8333H7.57204C7.79305 15.8333 8.00502 15.7455 8.1613 15.5893C8.31758 15.433 8.40537 15.221 8.40537 15Z" fill="#3E185B"/>
</svg>
