<?xml version="1.0" standalone="no"?>
<svg xmlns="http://www.w3.org/2000/svg" version="1.1" xmlns:xlink="http://www.w3.org/1999/xlink" width="512" height="512" x="0" y="0" viewBox="0 0 512 512" style="enable-background:new 0 0 512 512" xml:space="preserve" class=""><g><path d="M166 0H76c-8.291 0-15 6.709-15 15s6.709 15 15 15h90c8.291 0 15-6.709 15-15s-6.709-15-15-15zM0 75c0 8.291 6.709 15 15 15h91c8.291 0 15-6.709 15-15s-6.709-15-15-15H15C6.709 60 0 66.709 0 75zM497 30h-15V15c0-8.291-6.709-15-15-15s-15 6.709-15 15v15h-15c-8.291 0-15 6.709-15 15s6.709 15 15 15h15v15c0 8.291 6.709 15 15 15s15-6.709 15-15V60h15c8.291 0 15-6.709 15-15s-6.709-15-15-15zM391 482h15c8.291 0 15-6.709 15-15s-6.709-15-15-15h-15v-15c0-8.291-6.709-15-15-15s-15 6.709-15 15v15h-15c-8.291 0-15 6.709-15 15s6.709 15 15 15h15v15c0 8.291 6.709 15 15 15s15-6.709 15-15zM408.97 314.27c8.785-9.785 8.785-24.033 0-32.82-8.787-8.785-23.035-8.785-31.82 0l-58.337 58.337c-5.858 5.858-15.355 5.858-21.213 0s-5.858-15.357 0-21.215l79.55-79.548c8.785-8.787 8.785-23.035 0-31.82-8.787-8.787-23.035-8.787-31.82 0l-79.55 79.55c-5.858 5.856-15.355 5.856-21.213 0-5.858-5.858-5.858-15.357 0-21.215L345.33 164.777c8.785-8.785 8.785-23.033 0-31.818-8.787-8.787-23.035-8.787-31.82 0L212.747 233.72c-5.858 5.858-15.355 5.858-21.213 0s-5.858-15.355 0-21.213l79.55-79.548c8.785-8.787 8.785-23.035 0-31.82-8.787-8.787-23.035-8.787-31.82 0L88.061 252.214l-5.447-93.43a30 30 0 0 0-8.752-19.649c-11.693-11.695-30.732-11.695-42.426 0-5.594 5.594-8.568 12.874-8.774 20.477C9.164 330.102-29.68 396.219 42.041 467.94c58.579 58.579 153.554 58.579 212.133 1z" fill="#3e185b" opacity="1" data-original="#000000" class=""/><path d="M480.814 328.184c41.041-41.041 41.052-107.468 0-149.491l-127.28-127.28c-39.639-38.668-108.838-38.668-148.477 1L161.62 95.834c-16.802 16.809-23.615 39.659-21.097 61.626l77.523-77.534c9.917-9.917 23.101-15.381 37.119-15.381 14.033 0 27.217 5.464 37.134 15.381 6.284 6.284 10.781 13.872 13.228 22.163 7.31-3.735 15.454-5.713 23.892-5.713 14.019 0 27.188 5.449 37.104 15.352 9.932 9.932 15.396 23.115 15.396 37.134 0 8.452-1.978 16.597-5.728 23.906 8.306 2.446 15.894 6.943 22.178 13.242 16.479 16.465 19.688 41.265 9.624 60.996 8.291 2.446 15.894 6.929 22.178 13.213 20.493 20.479 20.493 53.804.015 74.268l-57.892 57.892c23 3.728 47.395-3.069 65.099-20.773z" fill="#3e185b" opacity="1" data-original="#000000" class=""/></g></svg>