<svg width="38" height="38" viewBox="0 0 38 38" fill="none" xmlns="http://www.w3.org/2000/svg">
<g clip-path="url(#clip0_16_30)">
<path d="M30.875 0H23.75C22.0036 0 20.5833 1.42025 20.5833 3.16667V9.5C20.5833 11.2464 22.0036 12.6667 23.75 12.6667H34.8333C36.5798 12.6667 38 11.2464 38 9.5V7.125C38 3.19675 34.8032 0 30.875 0ZM23.75 9.5V3.16667H30.875C33.0584 3.16667 34.8333 4.94317 34.8333 7.125V9.5H23.75ZM34.8333 15.8333H12.6667V9.5C12.6667 7.75358 11.2464 6.33333 9.5 6.33333H7.125C5.23598 6.33543 3.42492 7.08677 2.08918 8.42251C0.753436 9.75826 0.00209543 11.5693 0 13.4583L0 30.875C0 34.8032 3.19675 38 7.125 38H30.875C34.8032 38 38 34.8032 38 30.875V19C38 17.2536 36.5798 15.8333 34.8333 15.8333ZM34.8333 25.3333H20.5833V19H34.8333V25.3333ZM25.3333 28.5V34.8333H12.6667V28.5H25.3333ZM3.16667 13.4583C3.16667 11.2765 4.94158 9.5 7.125 9.5H9.5V15.8333H3.16667V13.4583ZM17.4167 19V25.3333H3.16667V19H17.4167ZM3.16667 30.875V28.5H9.5V34.8333H7.125C6.07557 34.8321 5.06948 34.4146 4.32742 33.6726C3.58537 32.9305 3.16792 31.9244 3.16667 30.875ZM30.875 34.8333H28.5V28.5H34.8333V30.875C34.8333 33.0568 33.0584 34.8333 30.875 34.8333Z" fill="#3E185B"/>
</g>
<defs>
<clipPath id="clip0_16_30">
<rect width="38" height="38" fill="white"/>
</clipPath>
</defs>
</svg>
