<svg width="59" height="59" viewBox="0 0 59 59" fill="none" xmlns="http://www.w3.org/2000/svg">
<path d="M47.9376 22.1252H33.1875C30.2546 22.1285 27.4427 23.295 25.3688 25.369C23.2949 27.4429 22.1283 30.2548 22.125 33.1877V47.9377C22.125 54.0369 27.0884 59.0002 33.1875 59.0002H47.9376C54.0367 59.0002 59.0001 54.0369 59.0001 47.9377V33.1877C59.0001 27.0886 54.0367 22.1252 47.9376 22.1252ZM56.5417 47.9377C56.5417 52.6823 52.6821 56.5419 47.9376 56.5419H33.1875C28.443 56.5419 24.5834 52.6823 24.5834 47.9377V33.1877C24.5834 28.4432 28.443 24.5836 33.1875 24.5836H47.9376C52.6821 24.5836 56.5417 28.4432 56.5417 33.1877V47.9377ZM36.875 34.4169C36.875 35.0689 36.616 35.6942 36.155 36.1552C35.694 36.6162 35.0687 36.8752 34.4167 36.8752C33.7647 36.8752 33.1394 36.6162 32.6784 36.1552C32.2174 35.6942 31.9584 35.0689 31.9584 34.4169C31.9584 33.7649 32.2174 33.1396 32.6784 32.6786C33.1394 32.2176 33.7647 31.9586 34.4167 31.9586C35.0687 31.9586 35.694 32.2176 36.155 32.6786C36.616 33.1396 36.875 33.7649 36.875 34.4169ZM49.1667 46.7086C49.1667 47.3606 48.9077 47.9859 48.4467 48.4469C47.9857 48.9079 47.3604 49.1669 46.7084 49.1669C46.0564 49.1669 45.4311 48.9079 44.9701 48.4469C44.5091 47.9859 44.25 47.3606 44.25 46.7086C44.25 46.0566 44.5091 45.4313 44.9701 44.9703C45.4311 44.5092 46.0564 44.2502 46.7084 44.2502C47.3604 44.2502 47.9857 44.5092 48.4467 44.9703C48.9077 45.4313 49.1667 46.0566 49.1667 46.7086ZM22.125 14.7502C21.4731 14.7502 20.8478 14.4912 20.3867 14.0302C19.9257 13.5692 19.6667 12.9439 19.6667 12.2919C19.6667 11.6399 19.9257 11.0146 20.3867 10.5536C20.8478 10.0926 21.4731 9.83357 22.125 9.83357C22.777 9.83357 23.4023 10.0926 23.8634 10.5536C24.3244 11.0146 24.5834 11.6399 24.5834 12.2919C24.5834 12.9439 24.3244 13.5692 23.8634 14.0302C23.4023 14.4912 22.777 14.7502 22.125 14.7502ZM12.2917 19.6669C12.9437 19.6669 13.569 19.9259 14.03 20.3869C14.491 20.848 14.75 21.4732 14.75 22.1252C14.75 22.7772 14.491 23.4025 14.03 23.8635C13.569 24.3246 12.9437 24.5836 12.2917 24.5836C11.6397 24.5836 11.0144 24.3246 10.5534 23.8635C10.0924 23.4025 9.83338 22.7772 9.83338 22.1252C9.83338 21.4732 10.0924 20.848 10.5534 20.3869C11.0144 19.9259 11.6397 19.6669 12.2917 19.6669ZM16.9945 40.7717C16.9039 40.9056 16.7877 41.0202 16.6526 41.1089C16.5175 41.1976 16.3662 41.2587 16.2073 41.2887C16.0485 41.3186 15.8853 41.3168 15.7272 41.2834C15.569 41.2499 15.4191 41.1855 15.286 41.0937C14.7204 40.7049 14.1914 40.2655 13.7053 39.781L3.27701 29.3503C1.20476 27.2744 0.0408936 24.461 0.0408936 21.5279C0.0408936 18.5947 1.20476 15.7813 3.27701 13.7054L13.7053 3.27719C15.7948 1.18515 18.5752 0.0371094 21.5277 0.0371094C24.4801 0.0371094 27.263 1.18761 29.3501 3.27719L39.7783 13.7054C40.2626 14.1897 40.7051 14.7232 41.0911 15.2862C41.1821 15.4195 41.246 15.5694 41.2791 15.7275C41.3122 15.8855 41.3138 16.0485 41.2839 16.2071C41.254 16.3658 41.1932 16.517 41.1048 16.6521C41.0165 16.7872 40.9024 16.9037 40.7691 16.9947C40.6357 17.0857 40.4858 17.1496 40.3277 17.1827C40.1697 17.2158 40.0067 17.2174 39.8481 17.1875C39.6894 17.1576 39.5382 17.0968 39.4031 17.0084C39.268 16.9201 39.1515 16.806 39.0605 16.6727C38.7597 16.2319 38.4181 15.8203 38.0403 15.4435L27.612 5.01523C24.3621 1.76532 18.6932 1.76286 15.4433 5.01523L5.01505 15.4435C3.40367 17.0584 2.4987 19.2465 2.4987 21.5279C2.4987 23.8092 3.40367 25.9973 5.01505 27.6122L15.4433 38.0405C15.8219 38.4191 16.2349 38.7632 16.6725 39.0607C16.9414 39.2449 17.1261 39.5284 17.1861 39.8488C17.246 40.1692 17.1762 40.5003 16.992 40.7692L16.9945 40.7717Z" fill="#3E185B"/>
</svg>
