<svg width="62" height="62" viewBox="0 0 62 62" fill="none" xmlns="http://www.w3.org/2000/svg">
<path d="M60.7083 59.417H51.6667V14.2087C51.6667 9.22285 47.6108 5.16702 42.625 5.16702H40.4627C39.5991 3.34515 38.1509 1.86446 36.3486 0.960526C34.5464 0.0565954 32.4936 -0.218642 30.5169 0.178605L19.6772 2.34602C17.0448 2.87878 14.677 4.30433 12.9744 6.38161C11.2719 8.45888 10.3389 11.0604 10.3333 13.7463V59.417H1.29167C0.949095 59.417 0.620555 59.5531 0.37832 59.7953C0.136086 60.0376 0 60.3661 0 60.7087C0 61.0513 0.136086 61.3798 0.37832 61.622C0.620555 61.8643 0.949095 62.0004 1.29167 62.0004H60.7083C61.0509 62.0004 61.3794 61.8643 61.6217 61.622C61.8639 61.3798 62 61.0513 62 60.7087C62 60.3661 61.8639 60.0376 61.6217 59.7953C61.3794 59.5531 61.0509 59.417 60.7083 59.417ZM42.625 7.75035C46.1848 7.75035 49.0833 10.6463 49.0833 14.2087V59.417H41.3333V9.0446C41.3333 8.60802 41.3023 8.1766 41.2403 7.75035H42.625ZM12.9167 13.7463C12.9209 11.6571 13.6464 9.63355 14.9705 8.01762C16.2946 6.40168 18.1361 5.29253 20.1836 4.87769L31.0232 2.71027C31.9606 2.51976 32.9287 2.54128 33.8566 2.77326C34.7845 3.00525 35.6488 3.44182 36.3862 4.05102C37.8872 5.28327 38.75 7.10194 38.75 9.0446V59.417H12.9167V13.7463ZM33.5833 31.0004C33.5833 31.6855 33.3112 32.3426 32.8267 32.827C32.3422 33.3115 31.6851 33.5837 31 33.5837C30.3149 33.5837 29.6578 33.3115 29.1733 32.827C28.6888 32.3426 28.4167 31.6855 28.4167 31.0004C28.4167 30.3152 28.6888 29.6581 29.1733 29.1737C29.6578 28.6892 30.3149 28.417 31 28.417C31.6851 28.417 32.3422 28.6892 32.8267 29.1737C33.3112 29.6581 33.5833 30.3152 33.5833 31.0004Z" fill="#3E185B"/>
</svg>
