<svg width="38" height="38" viewBox="0 0 38 38" fill="none" xmlns="http://www.w3.org/2000/svg">
<g clip-path="url(#clip0_16_95)">
<path d="M17.7967 38C17.2779 37.9981 16.7658 37.8836 16.2957 37.6643C15.5278 37.3224 14.911 36.712 14.5612 35.9476C14.2114 35.1833 14.1525 34.3175 14.3957 33.5128L16.8673 25.3333H11.0438C10.3018 25.3342 9.56997 25.1613 8.90689 24.8284C8.24382 24.4956 7.66794 24.012 7.22541 23.4165C6.78288 22.8209 6.48601 22.13 6.3586 21.3991C6.23118 20.6682 6.27675 19.9176 6.49167 19.2074L11.2797 3.3741C11.5715 2.39478 12.1731 1.53652 12.9942 0.928152C13.8152 0.319781 14.8115 -0.00589028 15.8333 1.79563e-05H21.6806C22.3452 0.000573932 22.9998 0.162034 23.5884 0.4706C24.1771 0.779166 24.6822 1.22566 25.0608 1.77193C25.4393 2.3182 25.68 2.948 25.7622 3.60751C25.8444 4.26702 25.7657 4.93662 25.5328 5.5591L22.8681 12.6667H26.9167C27.7797 12.6666 28.6264 12.9017 29.3659 13.3466C30.1053 13.7915 30.7096 14.4295 31.1138 15.192C31.518 15.9544 31.7069 16.8126 31.66 17.6744C31.6132 18.5361 31.3325 19.3688 30.8481 20.083L20.7148 36.3913C20.4015 36.8819 19.9703 37.2862 19.4605 37.5672C18.9508 37.8483 18.3787 37.997 17.7967 38ZM15.8333 3.16668C15.4933 3.16635 15.1622 3.27549 14.889 3.47795C14.6159 3.68041 14.4151 3.96544 14.3165 4.29085L9.5285 20.1242C9.45682 20.3608 9.44152 20.6108 9.48383 20.8544C9.52615 21.0979 9.6249 21.3282 9.77218 21.5267C9.91946 21.7252 10.1112 21.8865 10.332 21.9977C10.5528 22.1088 10.7966 22.1667 11.0438 22.1667H19C19.2472 22.1667 19.491 22.2246 19.7118 22.3357C19.9326 22.4468 20.1243 22.6081 20.2716 22.8067C20.4189 23.0052 20.5176 23.2354 20.5599 23.479C20.6022 23.7225 20.5869 23.9726 20.5153 24.2092L17.4325 34.409C17.4182 34.4465 17.4119 34.4866 17.414 34.5267C17.416 34.5668 17.4264 34.606 17.4444 34.6419C17.4624 34.6778 17.4877 34.7095 17.5186 34.7351C17.5496 34.7607 17.5855 34.7796 17.6241 34.7906C17.6591 34.813 17.6984 34.8279 17.7395 34.8342C17.7806 34.8405 17.8226 34.8382 17.8627 34.8273C17.9028 34.8164 17.9402 34.7972 17.9725 34.771C18.0047 34.7448 18.0311 34.7121 18.05 34.675L28.1833 18.3667C28.3605 18.1263 28.4662 17.8408 28.488 17.543C28.5099 17.2452 28.4471 16.9472 28.3068 16.6836C28.1769 16.4268 27.978 16.2112 27.7325 16.0611C27.487 15.9109 27.2045 15.832 26.9167 15.8334H20.5833C20.3274 15.8335 20.0753 15.7716 19.8485 15.653C19.6218 15.5344 19.4271 15.3626 19.2813 15.1524C19.1355 14.9421 19.0428 14.6996 19.0111 14.4457C18.9795 14.1917 19.0099 13.9339 19.0998 13.6943L22.5673 4.4476C22.6205 4.30424 22.6384 4.15014 22.6194 3.99839C22.6003 3.84664 22.5449 3.70173 22.4579 3.57598C22.3708 3.45023 22.2547 3.34735 22.1194 3.27609C21.9841 3.20483 21.8335 3.1673 21.6806 3.16668H15.8333Z" fill="#3E185B"/>
</g>
<defs>
<clipPath id="clip0_16_95">
<rect width="38" height="38" fill="white"/>
</clipPath>
</defs>
</svg>
