<svg width="51" height="51" viewBox="0 0 51 51" fill="none" xmlns="http://www.w3.org/2000/svg">
<path d="M16.32 24.4574V49.8667H41.7407V24.4574H16.32ZM40.0973 47.6341C40.0973 47.9627 39.8367 48.2234 39.508 48.2234H18.5527C18.224 48.2234 17.9633 47.9627 17.9633 47.6341V26.6901C17.9633 26.3614 18.224 26.1007 18.5527 26.1007H39.4967C39.8253 26.1007 40.086 26.3614 40.086 26.6901V47.6341H40.0973Z" fill="#3E185B"/>
<path d="M19.142 27.2794V47.0448H38.9073V27.2794H19.142ZM33.3653 43.4634C33.2747 43.5201 33.1613 43.5541 33.0593 43.5541H25.0127C24.8993 43.5541 24.7973 43.5201 24.7067 43.4634C22.4287 42.0694 21.08 39.7121 21.08 37.1621C21.08 34.6008 22.44 32.2548 24.7067 30.8608C24.7973 30.8041 24.9107 30.7701 25.0127 30.7701H33.0593C33.1727 30.7701 33.2747 30.8041 33.3653 30.8608C35.6433 32.2548 36.992 34.6121 36.992 37.1621C36.992 39.7121 35.632 42.0694 33.3653 43.4634Z" fill="#3E185B"/>
<path d="M32.878 31.9487H25.1713C23.3353 33.1387 22.2473 35.0767 22.2473 37.1621C22.2473 39.2474 23.3353 41.1854 25.1713 42.3754H32.878C34.714 41.1854 35.802 39.2474 35.802 37.1621C35.8133 35.0654 34.714 33.1274 32.878 31.9487ZM27.37 36.3007C27.37 36.6294 27.1093 36.8901 26.7807 36.8901C26.452 36.8901 26.1913 36.6294 26.1913 36.3007V34.1701C26.1913 33.8414 26.452 33.5807 26.7807 33.5807C27.1093 33.5807 27.37 33.8414 27.37 34.1701V36.3007ZM30.09 40.7321H27.9593C27.6307 40.7321 27.37 40.4714 27.37 40.1427C27.37 39.8141 27.6307 39.5534 27.9593 39.5534H30.09C30.4187 39.5534 30.6793 39.8141 30.6793 40.1427C30.6793 40.4714 30.4187 40.7321 30.09 40.7321ZM31.8693 36.3007C31.8693 36.6294 31.6087 36.8901 31.28 36.8901C30.9513 36.8901 30.6907 36.6294 30.6907 36.3007V34.1701C30.6907 33.8414 30.9513 33.5807 31.28 33.5807C31.6087 33.5807 31.8693 33.8414 31.8693 34.1701V36.3007ZM37.2413 23.2674H15.7307C15.402 23.2674 15.1413 23.5281 15.1413 23.8567V27.9141C13.5887 26.9847 10.404 24.7407 9.49733 21.7374C9.12333 20.4794 9.19133 19.2101 9.71266 17.9407C10.6193 19.1307 12.648 20.9667 16.6147 20.9667C16.8413 20.9667 17.0453 20.8421 17.1473 20.6381C17.2493 20.4341 17.2267 20.1961 17.0793 20.0147C17.0567 19.9807 14.4613 16.5354 16.6147 9.86005L21.182 17.2381C21.352 17.5101 21.692 17.6007 21.964 17.4421C22.236 17.2947 22.3493 16.9547 22.2133 16.6714C22.202 16.6487 21.0233 13.7701 24.412 7.70672C25.3073 6.12005 25.942 4.44272 26.316 2.74272C26.452 2.13072 26.5313 1.58672 26.5767 1.11072C28.0613 2.64072 30.5093 5.83672 29.8747 9.81472C29.648 11.2201 29.648 12.5574 29.8747 13.8041C30.1013 15.0621 30.498 16.2521 31.0533 17.3627C31.2347 17.7254 31.6087 17.9294 32.0053 17.8841C33.014 17.7934 36.1193 17.0794 36.7653 11.9567C37.298 12.6481 37.9553 13.6567 38.4313 14.8694C39.644 17.8841 39.236 20.7061 37.2413 23.2674Z" fill="#3E185B"/>
</svg>
