<svg width="24" height="24" viewBox="0 0 24 24" fill="none" xmlns="http://www.w3.org/2000/svg">
<path d="M18.807 6.607C18.9891 6.4184 19.0899 6.16579 19.0877 5.9036C19.0854 5.6414 18.9802 5.39059 18.7948 5.20518C18.6094 5.01977 18.3586 4.9146 18.0964 4.91232C17.8342 4.91005 17.5816 5.01084 17.393 5.193L12 10.586L6.60698 5.193C6.51474 5.09749 6.40439 5.02131 6.28239 4.9689C6.16038 4.91649 6.02916 4.8889 5.89638 4.88775C5.76361 4.88659 5.63193 4.9119 5.50903 4.96218C5.38613 5.01246 5.27448 5.08671 5.18059 5.1806C5.0867 5.2745 5.01244 5.38615 4.96216 5.50904C4.91188 5.63194 4.88658 5.76362 4.88773 5.8964C4.88889 6.02918 4.91647 6.1604 4.96888 6.2824C5.02129 6.40441 5.09747 6.51475 5.19298 6.607L10.586 12L5.19298 17.393C5.09747 17.4852 5.02129 17.5956 4.96888 17.7176C4.91647 17.8396 4.88889 17.9708 4.88773 18.1036C4.88658 18.2364 4.91188 18.3681 4.96216 18.491C5.01244 18.6138 5.0867 18.7255 5.18059 18.8194C5.27448 18.9133 5.38613 18.9875 5.50903 19.0378C5.63193 19.0881 5.76361 19.1134 5.89638 19.1123C6.02916 19.1111 6.16038 19.0835 6.28239 19.0311C6.40439 18.9787 6.51474 18.9025 6.60698 18.807L12 13.414L17.393 18.807C17.5816 18.9892 17.8342 19.09 18.0964 19.0877C18.3586 19.0854 18.6094 18.9802 18.7948 18.7948C18.9802 18.6094 19.0854 18.3586 19.0877 18.0964C19.0899 17.8342 18.9891 17.5816 18.807 17.393L13.414 12L18.807 6.607Z" fill="#62646A"/>
</svg>
