<svg width="26" height="26" viewBox="0 0 26 26" fill="none" xmlns="http://www.w3.org/2000/svg">
<g clip-path="url(#clip0_352_25)">
<path d="M18.9583 0.993416C17.7384 1.01239 16.5452 1.35292 15.499 1.98063C14.4528 2.60833 13.5908 3.50097 13 4.56842C12.4092 3.50097 11.5472 2.60833 10.501 1.98063C9.45483 1.35292 8.26155 1.01239 7.04166 0.993416C5.09701 1.07791 3.26484 1.92861 1.94543 3.35967C0.62601 4.79073 -0.0734009 6.68582 -4.49456e-06 8.63092C-4.49456e-06 15.9705 11.869 24.4476 12.3738 24.8072L13 25.2503L13.6262 24.8072C14.131 24.4497 26 15.9705 26 8.63092C26.0734 6.68582 25.374 4.79073 24.0546 3.35967C22.7351 1.92861 20.903 1.07791 18.9583 0.993416ZM13 22.5832C9.47591 19.9507 2.16666 13.4832 2.16666 8.63092C2.09261 7.26019 2.56356 5.91579 3.47681 4.89092C4.39005 3.86606 5.6715 3.24388 7.04166 3.16008C8.41183 3.24388 9.69327 3.86606 10.6065 4.89092C11.5198 5.91579 11.9907 7.26019 11.9167 8.63092H14.0833C14.0093 7.26019 14.4802 5.91579 15.3935 4.89092C16.3067 3.86606 17.5882 3.24388 18.9583 3.16008C20.3285 3.24388 21.6099 3.86606 22.5232 4.89092C23.4364 5.91579 23.9074 7.26019 23.8333 8.63092C23.8333 13.4853 16.5241 19.9507 13 22.5832Z" fill="#3E185B"/>
</g>
<defs>
<clipPath id="clip0_352_25">
<rect width="26" height="26" fill="white"/>
</clipPath>
</defs>
</svg>
