<svg width="22" height="22" viewBox="0 0 22 22" fill="none" xmlns="http://www.w3.org/2000/svg">
<g clip-path="url(#clip0_335_152)">
<path fill-rule="evenodd" clip-rule="evenodd" d="M10.9649 0.333539C12.948 0.356169 14.7396 0.843578 16.3397 1.79577C17.9206 2.72892 19.2357 4.05205 20.1592 5.63863C21.1055 7.24827 21.59 9.05071 21.6126 11.0459C21.5564 13.7759 20.6953 16.1075 19.0294 18.0408C17.3635 19.9742 15.2299 21.1702 13.0212 21.6288V13.9749H15.1094L15.5816 10.9671H12.4197V8.99707C12.4021 8.58867 12.5313 8.18747 12.7838 7.866C13.0366 7.54365 13.4819 7.37423 14.1197 7.35773H16.029V4.72297C16.0016 4.71415 15.7417 4.67928 15.2492 4.61838C14.6906 4.55302 14.1289 4.51811 13.5665 4.5138C12.2937 4.51967 11.2871 4.87872 10.5466 5.59094C9.80612 6.30293 9.42787 7.33303 9.41185 8.68125V10.9671H7.0056V13.9749H9.41185V21.6288C6.69988 21.1703 4.56627 19.9743 2.90037 18.0409C1.23447 16.1076 0.373464 13.7759 0.317261 11.0459C0.339748 9.05062 0.824206 7.24818 1.77064 5.63863C2.69414 4.05204 4.00924 2.72889 5.59017 1.79572C7.19016 0.843736 8.98172 0.35637 10.9649 0.333539Z" fill="#4E286B"/>
</g>
<defs>
<clipPath id="clip0_335_152">
<rect width="22" height="22" fill="white"/>
</clipPath>
</defs>
</svg>
