<svg width="45" height="45" viewBox="0 0 45 45" fill="none" xmlns="http://www.w3.org/2000/svg">
<path d="M10.0671 15.3191C9.09491 16.7951 9.50337 18.7795 10.9791 19.7518C12.455 20.724 14.4394 20.3157 15.4117 18.8398C16.3839 17.3639 15.9757 15.3796 14.4997 14.4072C13.0241 13.435 11.0394 13.8433 10.0671 15.3191ZM14.6388 19.1284C13.3734 18.5535 12.0888 18.1887 11.8898 18.3483L11.6235 18.0149C12.1457 17.598 14.0294 18.383 14.8152 18.74L14.6388 19.1284ZM7.14178 33.4125L6.42598 41.4125C6.33851 42.3904 7.06029 43.2541 8.0382 43.3416C8.0921 43.3464 8.14558 43.3488 8.19863 43.3488C9.10884 43.3488 9.88466 42.6534 9.96729 41.7294L10.7733 32.7219C10.8007 32.4149 10.7479 32.106 10.62 31.8256C10.492 31.5452 10.2934 31.3028 10.0435 31.1224L4.99537 27.4762C5.53866 26.4802 6.23896 25.5276 6.94352 24.659L6.03274 21.4128C5.98025 21.2276 5.96502 21.0339 5.98792 20.8428C6.01082 20.6517 6.0714 20.4671 6.16614 20.2996C6.25993 20.1315 6.38612 19.9838 6.5374 19.8648C6.68868 19.7459 6.86206 19.6582 7.04749 19.6067C7.17652 19.5703 7.30994 19.5518 7.444 19.5518C8.09736 19.5518 8.67706 19.9917 8.85356 20.6214L9.60121 23.2864L11.2137 25.4874C11.334 25.6517 11.4962 25.7807 11.6833 25.8609L16.91 28.1009C17.1873 28.2197 17.5005 28.2234 17.7807 28.1113C18.0608 27.9992 18.285 27.7804 18.4039 27.5031C18.4627 27.3658 18.494 27.2182 18.4958 27.0688C18.4976 26.9194 18.47 26.771 18.4145 26.6323C18.359 26.4936 18.2767 26.3671 18.1724 26.2602C18.068 26.1533 17.9436 26.0679 17.8063 26.0091L12.8655 23.8915L9.49867 19.2958C9.46301 19.2479 9.42368 19.2029 9.38105 19.1611C9.32812 19.0885 9.26887 19.0207 9.20399 18.9586C8.29391 18.0997 6.4365 17.8123 4.792 19.2769C2.54262 21.304 1.44638 22.83 0.219008 25.7644C-0.46465 27.8267 0.575273 28.8127 1.64563 29.4426L7.14178 33.4125Z" fill="#3E185B"/>
<path d="M8.5387 20.7098C8.49836 20.5659 8.43008 20.4314 8.33775 20.314C8.24541 20.1965 8.13085 20.0984 8.00058 20.0252C7.87032 19.952 7.72692 19.9052 7.57857 19.8874C7.43021 19.8697 7.27982 19.8814 7.13597 19.9217C6.99211 19.9621 6.8576 20.0304 6.74013 20.1227C6.62266 20.215 6.52454 20.3296 6.45136 20.4599C6.37818 20.5901 6.33137 20.7335 6.31363 20.8819C6.29588 21.0302 6.30753 21.1806 6.34792 21.3245L7.73458 26.2667C7.80921 26.5328 7.97817 26.7627 8.20988 26.9133L12.4765 29.6867C12.6018 29.7682 12.7419 29.8242 12.8888 29.8516C13.0358 29.8789 13.1867 29.877 13.3329 29.846C13.4791 29.815 13.6177 29.7555 13.7409 29.6708C13.8641 29.5862 13.9694 29.4781 14.0508 29.3527C14.2152 29.0997 14.2723 28.7917 14.2097 28.4965C14.1471 28.2013 13.9698 27.9431 13.7168 27.7786L9.80959 25.2391L8.5387 20.7098ZM28.8895 43.7201H44.362V31.5051H28.8895V43.7201ZM42.2287 41.5865H31.0229V33.6384H42.2287V41.5865ZM32.8793 32.0579C32.9454 32.0568 33.011 32.0688 33.0724 32.0933C33.1338 32.1178 33.1896 32.1543 33.2368 32.2006C33.2839 32.247 33.3213 32.3022 33.3469 32.3631C33.3724 32.4241 33.3856 32.4895 33.3856 32.5556C33.3856 32.6216 33.3725 32.687 33.3469 32.748C33.3214 32.8089 33.284 32.8642 33.2369 32.9105C33.1897 32.9569 33.1339 32.9933 33.0725 33.0179C33.0112 33.0424 32.9455 33.0544 32.8795 33.0533C32.7489 33.0511 32.6245 32.9978 32.5329 32.9047C32.4414 32.8116 32.3901 32.6863 32.39 32.5557C32.39 32.4251 32.4413 32.2998 32.5328 32.2067C32.6243 32.1136 32.7488 32.0601 32.8793 32.0579ZM31.4335 32.0579C31.4996 32.0568 31.5652 32.0688 31.6266 32.0933C31.6879 32.1178 31.7438 32.1543 31.7909 32.2006C31.8381 32.247 31.8755 32.3022 31.901 32.3631C31.9266 32.4241 31.9398 32.4895 31.9398 32.5556C31.9398 32.6216 31.9266 32.687 31.9011 32.748C31.8756 32.8089 31.8381 32.8642 31.791 32.9105C31.7439 32.9569 31.6881 32.9933 31.6267 33.0179C31.5653 33.0424 31.4997 33.0544 31.4336 33.0533C31.3031 33.0511 31.1786 32.9978 31.0871 32.9047C30.9955 32.8116 30.9442 32.6863 30.9442 32.5557C30.9442 32.4251 30.9955 32.2998 31.087 32.2067C31.1785 32.1136 31.303 32.0601 31.4335 32.0579Z" fill="#3E185B"/>
<path d="M41.802 34.0651H31.4493V41.1601H41.802V34.0651ZM41.3753 40.7337H31.8759V34.4914H41.3753V40.7337Z" fill="#3E185B"/>
<path d="M28.8894 27.5348C26.9545 27.9559 26.8676 30.8878 26.7982 33.2814C26.7527 34.8525 26.7055 36.4773 26.0905 36.4773C25.5356 36.4773 25.3483 35.4578 25.1315 34.2774C24.8242 32.6029 24.4311 30.4684 22.729 29.641V27.9434H18.3006V30.9768C17.7292 31.3994 17.5362 31.9213 17.5362 32.1389V43.1611C17.5362 43.5539 17.7723 43.8722 18.0634 43.8722H22.9662C23.2575 43.8722 23.4934 43.5539 23.4934 43.1611V32.1389C23.4934 31.9213 23.3006 31.3992 22.729 30.9768V30.139C24.0862 30.9495 24.4243 32.7877 24.7118 34.3543C24.963 35.7223 25.18 36.9039 26.0904 36.9039C27.1198 36.9039 27.166 35.3108 27.2245 33.2938C27.291 30.998 27.3661 28.4255 28.8893 27.9772V30.6832H44.3619V26.2268H28.8894V27.5348ZM18.9334 28.7019H22.0965V29.4137C21.8348 29.3477 21.5488 29.3072 21.2357 29.2959C21.2051 29.2622 21.1679 29.2351 21.1263 29.2166C21.0847 29.1981 21.0397 29.1884 20.9942 29.1883H20.0342C19.8533 29.1883 19.7052 29.3363 19.7052 29.5172C19.7052 29.6981 19.8533 29.8462 20.0342 29.8462H20.2778V30.3612H18.9335L18.9334 28.7019ZM20.0009 42.8767H18.3139C18.183 42.8767 18.0766 42.7333 18.0766 42.5567C18.0766 42.3799 18.183 42.2367 18.3139 42.2367H20.0009C20.132 42.2367 20.2381 42.3799 20.2381 42.5567C20.2381 42.7333 20.132 42.8767 20.0009 42.8767ZM22.9531 42.5567C22.9531 42.7333 22.847 42.8767 22.7159 42.8767H21.0289C20.898 42.8767 20.7916 42.7333 20.7916 42.5567C20.7916 42.3799 20.898 42.2367 21.0289 42.2367H22.7159C22.8469 42.2367 22.9531 42.3799 22.9531 42.5567ZM22.0964 30.3612H20.7521V29.8462H20.994C21.0957 29.8462 21.1859 29.7984 21.2463 29.7254C21.5585 29.7401 21.8419 29.7859 22.0964 29.8618V30.3612ZM33.2124 24.9673H40.039V25.5837H33.2124V24.9673ZM33.0398 1.12769H39.8014V3.70573H33.0398V1.12769ZM33.0398 4.37801L27.8413 11.1398H45L39.8014 4.37801H33.0398Z" fill="#3E185B"/>
<path d="M20.5905 26.1576C20.7411 26.1576 20.8632 26.0355 20.8632 25.8849C20.8632 25.7344 20.7411 25.6123 20.5905 25.6123C20.44 25.6123 20.3179 25.7344 20.3179 25.8849C20.3179 26.0355 20.44 26.1576 20.5905 26.1576Z" fill="#3E185B"/>
<path d="M20.9105 27.2419C21.0611 27.2419 21.1832 27.1199 21.1832 26.9693C21.1832 26.8187 21.0611 26.6967 20.9105 26.6967C20.7599 26.6967 20.6379 26.8187 20.6379 26.9693C20.6379 27.1199 20.7599 27.2419 20.9105 27.2419Z" fill="#3E185B"/>
<path d="M20.9934 25.1502C21.2422 25.1502 21.4439 24.9486 21.4439 24.6998C21.4439 24.451 21.2422 24.2494 20.9934 24.2494C20.7447 24.2494 20.543 24.451 20.543 24.6998C20.543 24.9486 20.7447 25.1502 20.9934 25.1502Z" fill="#3E185B"/>
<path d="M19.9861 24.0953C20.2348 24.0953 20.4365 23.8936 20.4365 23.6449C20.4365 23.3961 20.2348 23.1945 19.9861 23.1945C19.7373 23.1945 19.5357 23.3961 19.5357 23.6449C19.5357 23.8936 19.7373 24.0953 19.9861 24.0953Z" fill="#3E185B"/>
<path d="M21.0232 22.9693C21.3341 22.9693 21.5861 22.7173 21.5861 22.4064C21.5861 22.0955 21.3341 21.8435 21.0232 21.8435C20.7123 21.8435 20.4603 22.0955 20.4603 22.4064C20.4603 22.7173 20.7123 22.9693 21.0232 22.9693Z" fill="#3E185B"/>
<path d="M19.5269 22.0747C19.9245 22.0747 20.2469 21.7523 20.2469 21.3546C20.2469 20.9569 19.9245 20.6345 19.5269 20.6345C19.1292 20.6345 18.8068 20.9569 18.8068 21.3546C18.8068 21.7523 19.1292 22.0747 19.5269 22.0747Z" fill="#3E185B"/>
<path d="M21.1979 20.1782C21.6807 20.1782 22.072 19.7869 22.072 19.3041C22.072 18.8214 21.6807 18.4301 21.1979 18.4301C20.7152 18.4301 20.3239 18.8214 20.3239 19.3041C20.3239 19.7869 20.7152 20.1782 21.1979 20.1782Z" fill="#3E185B"/>
<path d="M15.5653 11.5529C15.6064 11.3353 15.4859 11.1377 15.2193 11.0875C14.9798 11.0423 14.7816 11.1966 14.7435 11.3978C14.7026 11.6154 14.8101 11.8218 15.0874 11.8743C15.3436 11.9225 15.5253 11.7652 15.5653 11.5529ZM16.0915 8.46793C16.1234 8.29911 16.0598 8.1576 15.7985 8.1084C15.5428 8.06004 15.431 8.17439 15.4023 8.32656L15.2864 8.94153L15.0672 10.76L15.5186 10.8453L15.9776 9.07195L16.0915 8.46793ZM16.966 11.4172C16.7268 11.3721 16.5305 11.5152 16.4904 11.7275C16.4493 11.9452 16.5635 12.1471 16.8302 12.1975C17.0859 12.2458 17.269 12.0831 17.3069 11.8817C17.349 11.6585 17.2274 11.4665 16.966 11.4172ZM17.8626 10.341C18.3124 10.1383 18.5214 9.89598 18.5984 9.48794C18.6694 9.11234 18.4979 8.61798 17.7578 8.47817C17.3823 8.40735 16.9635 8.44646 16.7208 8.5079L16.5719 9.29694L17.1566 9.45239L17.2162 9.1368C17.2307 9.06071 17.2663 9.02203 17.3173 9.02075C17.3921 9.01207 17.4793 9.02857 17.5717 9.04606C17.7839 9.08617 17.9006 9.21531 17.8593 9.43305C17.806 9.71592 17.6315 9.77324 17.3645 9.90323C16.9929 10.0811 16.7998 10.2082 16.7571 10.6735L16.7213 11.0726L17.2927 11.1804L17.3422 10.9193C17.4079 10.5707 17.493 10.5078 17.8626 10.341Z" fill="#3E185B"/>
</svg>
