<?xml version="1.0" standalone="no"?>
<svg xmlns="http://www.w3.org/2000/svg" version="1.1" xmlns:xlink="http://www.w3.org/1999/xlink" width="512" height="512" x="0" y="0" viewBox="0 0 66 66" style="enable-background:new 0 0 512 512" xml:space="preserve" class=""><g><path d="M57.287 25.975c-.45.831-8.72 8.985-8.82 9.06 4.8 1.83 8.49 7.55 11.52 13.05.207.4.693.586 1 .51.41-.05.74-.34.84-.74 4.017-15.592-4.296-21.417-4.54-21.88zM35.004 25.57l.8.8-5.637 5.145 6.86 6.86c1.527-1.681 3.227-3.555 5.135-5.646l.801.8a2.969 2.969 0 0 0 4.187 0l7.95-7.95a2.959 2.959 0 0 0 0-4.186l-7.95-7.96c-1.12-1.12-3.076-1.12-4.196 0l-7.95 7.95a2.96 2.96 0 0 0 0 4.187zM27.457 19.105a2.968 2.968 0 0 0 4.22 0l1.26-1.26 1.39 1.39 6.48-6.49-1.38-1.38 1.26-1.26a2.994 2.994 0 0 0 0-4.22l-4.03-4.03c-1.13-1.12-3.09-1.12-4.22 0l-9 9.01a2.968 2.968 0 0 0 0 4.22zM5.647 53.835a6.395 6.395 0 0 0-.22 9.27 6.399 6.399 0 0 0 9.27-.22c12.449-13.672 14.213-15.603 14.31-15.71l-7.64-7.65c-3.72 3.38-8.81 8.01-15.72 14.31z" fill="#3e185b" opacity="1" data-original="#000000"/><path d="M50.577 46.975a9.424 9.424 0 0 0-9.95-2.17l-19.15-19.15c1.25-3.38.53-7.33-2.18-10.04a9.447 9.447 0 0 0-6.72-2.78c-.84 0-1.67.11-2.48.32-.77.23-.97 1.15-.44 1.68l3.95 3.95-.18 4.4-4.4.18-3.95-3.96c-.54-.54-1.47-.29-1.67.45-.89 3.28.06 6.8 2.45 9.2 2.55 2.55 6.39 3.54 10.04 2.18l19.15 19.15c-1.23 3.35-.51 7.26 2.17 9.95 3.68 3.68 9.67 3.69 13.35-.01 3.69-3.68 3.69-9.67.01-13.35zm-3.1 9.91c-.04.17-.18.31-.35.35-4.469 1.2-4.268 1.16-4.37 1.16-.369 0-.298-.165-3.45-3.25-.13-.13-.18-.31-.13-.48l1.13-4.24c.05-.18.18-.31.36-.36l4.23-1.13c.18-.05.36 0 .49.13l3.1 3.1c.13.13.17.31.13.48z" fill="#3e185b" opacity="1" data-original="#000000"/></g></svg>