<svg width="22" height="22" viewBox="0 0 22 22" fill="none" xmlns="http://www.w3.org/2000/svg">
<g clip-path="url(#clip0_335_140)">
<path d="M21.9784 6.46806C21.9269 5.29908 21.7379 4.4955 21.467 3.79909C21.1877 3.05993 20.7579 2.39817 20.1949 1.84802C19.6447 1.28931 18.9786 0.855159 18.2479 0.580191C17.5476 0.309435 16.7481 0.120336 15.5792 0.0688494C14.4015 0.0128931 14.0276 0 11.0407 0C8.05381 0 7.67995 0.0128931 6.50663 0.0644657C5.3377 0.116038 4.53407 0.305224 3.83788 0.575808C3.0985 0.855159 2.43674 1.28493 1.88659 1.84802C1.32789 2.39812 0.893948 3.06427 0.618766 3.79488C0.34801 4.4955 0.158953 5.29478 0.107424 6.46368C0.0515103 7.64138 0.0385742 8.01524 0.0385742 11.0021C0.0385742 13.9891 0.0515103 14.363 0.10304 15.5362C0.154613 16.7052 0.343798 17.5088 0.614597 18.2052C0.893948 18.9444 1.32789 19.6061 1.88659 20.1563C2.43674 20.715 3.10289 21.1491 3.8335 21.4241C4.53403 21.6949 5.33332 21.884 6.50247 21.9354C7.67557 21.9872 8.04964 21.9999 11.0366 21.9999C14.0235 21.9999 14.3973 21.9872 15.5706 21.9354C16.7396 21.8839 17.5432 21.6949 18.2394 21.4241C18.9706 21.1414 19.6346 20.709 20.189 20.1547C20.7433 19.6004 21.1758 18.9364 21.4585 18.2052C21.7291 17.5046 21.9183 16.7052 21.9699 15.5362C22.0214 14.363 22.0343 13.9891 22.0343 11.0021C22.0343 8.01524 22.0299 7.64134 21.9784 6.46806ZM19.9973 15.4503C19.9499 16.5247 19.7695 17.1049 19.619 17.4917C19.2494 18.4501 18.4887 19.2108 17.5303 19.5805C17.1435 19.7309 16.5591 19.9114 15.4889 19.9585C14.3285 20.0102 13.9805 20.023 11.0451 20.023C8.10972 20.023 7.75735 20.0102 6.60114 19.9585C5.52671 19.9114 4.94652 19.7309 4.55973 19.5805C4.08281 19.4042 3.6487 19.1248 3.29628 18.7595C2.93098 18.4028 2.65163 17.973 2.47534 17.4961C2.32492 17.1093 2.14445 16.5247 2.09731 15.4547C2.04556 14.2943 2.03284 13.9461 2.03284 11.0107C2.03284 8.07532 2.04556 7.72295 2.09731 6.56695C2.14445 5.49252 2.32492 4.91233 2.47534 4.52554C2.65163 4.0484 2.93098 3.61438 3.30067 3.26188C3.65721 2.89657 4.08698 2.61722 4.56411 2.44114C4.9509 2.29072 5.53548 2.11022 6.60552 2.0629C7.76591 2.01133 8.11411 1.99844 11.0493 1.99844C13.989 1.99844 14.337 2.01133 15.4932 2.0629C16.5677 2.11026 17.1479 2.29068 17.5347 2.4411C18.0116 2.61722 18.4457 2.89657 18.7981 3.26188C19.1634 3.61863 19.4428 4.0484 19.619 4.52554C19.7695 4.91233 19.9499 5.49669 19.9972 6.56695C20.0488 7.72733 20.0617 8.07532 20.0617 11.0107C20.0617 13.9461 20.0489 14.2899 19.9973 15.4503Z" fill="#4E286B"/>
<path d="M11.0408 5.35041C7.92072 5.35041 5.38928 7.88168 5.38928 11.0019C5.38928 14.1221 7.92072 16.6534 11.0408 16.6534C14.1609 16.6534 16.6923 14.1221 16.6923 11.0019C16.6923 7.88168 14.1609 5.35041 11.0408 5.35041ZM11.0408 14.6679C9.01664 14.6679 7.37474 13.0262 7.37474 11.0019C7.37474 8.9776 9.01664 7.33596 11.0407 7.33596C13.065 7.33596 14.7067 8.9776 14.7067 11.0019C14.7067 13.0262 13.065 14.6679 11.0408 14.6679ZM18.2352 5.12693C18.2352 5.85556 17.6444 6.44633 16.9157 6.44633C16.1871 6.44633 15.5963 5.85556 15.5963 5.12693C15.5963 4.39821 16.1871 3.80762 16.9157 3.80762C17.6444 3.80762 18.2352 4.39817 18.2352 5.12693Z" fill="#4E286B"/>
</g>
<defs>
<clipPath id="clip0_335_140">
<rect width="22" height="22" fill="white"/>
</clipPath>
</defs>
</svg>
