<svg width="22" height="22" viewBox="0 0 22 22" fill="none" xmlns="http://www.w3.org/2000/svg">
<g clip-path="url(#clip0_33_168)">
<path d="M11 0C8.82441 0 6.69767 0.645139 4.88873 1.85383C3.07979 3.06253 1.66989 4.7805 0.83733 6.79048C0.00476615 8.80047 -0.213071 11.0122 0.211367 13.146C0.635804 15.2798 1.68345 17.2398 3.22183 18.7782C4.76021 20.3166 6.72022 21.3642 8.85401 21.7886C10.9878 22.2131 13.1995 21.9952 15.2095 21.1627C17.2195 20.3301 18.9375 18.9202 20.1462 17.1113C21.3549 15.3023 22 13.1756 22 11C21.9968 8.08359 20.8369 5.28753 18.7747 3.22531C16.7125 1.16309 13.9164 0.00315432 11 0ZM18.9356 6.41667H15.9784C15.3157 4.87988 14.4423 3.44281 13.3833 2.14683C15.7245 2.78279 17.7199 4.3173 18.9356 6.41667ZM15.125 11C15.1184 11.9332 14.9723 12.8601 14.6914 13.75H7.30859C7.02776 12.8601 6.88161 11.9332 6.875 11C6.88161 10.0668 7.02776 9.13992 7.30859 8.25H14.6914C14.9723 9.13992 15.1184 10.0668 15.125 11ZM8.04284 15.5833H13.9572C13.1786 17.12 12.1826 18.5364 11 19.789C9.81739 18.5364 8.82143 17.12 8.04284 15.5833ZM8.04284 6.41667C8.82143 4.88001 9.81739 3.46357 11 2.211C12.1826 3.46357 13.1786 4.88001 13.9572 6.41667H8.04284ZM8.61667 2.14683C7.55797 3.44298 6.68458 4.88001 6.02159 6.41667H3.06442C4.28015 4.3173 6.27554 2.78279 8.61667 2.14683ZM2.255 8.25H5.401C4.92191 10.052 4.92191 11.948 5.401 13.75H2.255C1.69281 11.9598 1.69281 10.0402 2.255 8.25ZM3.06442 15.5833H6.02159C6.68432 17.1201 7.55772 18.5572 8.61667 19.8532C6.27554 19.2172 4.28015 17.6827 3.06442 15.5833ZM13.3833 19.8532C14.442 18.557 15.3154 17.12 15.9784 15.5833H18.9356C17.7199 17.6827 15.7245 19.2172 13.3833 19.8532ZM19.745 13.75H16.599C17.0781 11.948 17.0781 10.052 16.599 8.25H19.745C20.3072 10.0402 20.3072 11.9598 19.745 13.75Z" fill="#62646A"/>
</g>
<defs>
<clipPath id="clip0_33_168">
<rect width="22" height="22" fill="white"/>
</clipPath>
</defs>
</svg>
