<svg width="22" height="22" viewBox="0 0 22 22" fill="none" xmlns="http://www.w3.org/2000/svg">
<g clip-path="url(#clip0_335_149)">
<path d="M19.8447 0.34375H2.1553C1.66977 0.344524 1.20437 0.53786 0.861208 0.881344C0.518047 1.22483 0.325147 1.69041 0.324829 2.17594V19.8241C0.325147 20.3096 0.518047 20.7752 0.861208 21.1187C1.20437 21.4621 1.66977 21.6555 2.1553 21.6562H19.8447C20.3302 21.6555 20.7956 21.4621 21.1388 21.1187C21.4819 20.7752 21.6748 20.3096 21.6751 19.8241V2.17594C21.6748 1.69041 21.4819 1.22483 21.1388 0.881344C20.7956 0.53786 20.3302 0.344524 19.8447 0.34375ZM3.86889 4.6475C3.86953 4.39532 3.97011 4.15367 4.14859 3.97551C4.32707 3.79735 4.5689 3.69721 4.82108 3.69703H6.29577C6.54778 3.69726 6.7894 3.79747 6.9676 3.97567C7.1458 4.15387 7.24601 4.39549 7.24624 4.6475V6.12391C7.24601 6.37592 7.1458 6.61754 6.9676 6.79574C6.7894 6.97394 6.54778 7.07415 6.29577 7.07438H4.82108C4.5689 7.07419 4.32707 6.97405 4.14859 6.79589C3.97011 6.61773 3.86953 6.37609 3.86889 6.12391V4.6475ZM7.62608 18.0091C7.62622 18.0868 7.59553 18.1613 7.54076 18.2164C7.48598 18.2715 7.41158 18.3027 7.33389 18.303H3.79327C3.71557 18.3027 3.64118 18.2715 3.5864 18.2164C3.53163 18.1613 3.50094 18.0868 3.50108 18.0091V7.66734C3.50094 7.58965 3.53163 7.51507 3.5864 7.45998C3.64118 7.40488 3.71557 7.37376 3.79327 7.37344H7.33389C7.41158 7.37376 7.48598 7.40488 7.54076 7.45998C7.59553 7.51507 7.62622 7.58965 7.62608 7.66734V18.0091ZM18.4989 18.0091C18.499 18.0868 18.4683 18.1613 18.4136 18.2164C18.3588 18.2715 18.2844 18.3027 18.2067 18.303H15.3467C15.269 18.3027 15.1946 18.2715 15.1398 18.2164C15.0851 18.1613 15.0544 18.0868 15.0545 18.0091V12.3802C15.0545 11.8817 14.9995 11.1788 14.5217 10.8281C13.8995 10.3692 13.0883 10.5875 12.6087 11.0378C12.2856 11.3386 12.1292 11.8009 12.1292 12.4506V18.0091C12.1289 18.0869 12.0979 18.1615 12.0428 18.2166C11.9878 18.2716 11.9132 18.3027 11.8353 18.303H8.97702C8.89915 18.3027 8.82455 18.2716 8.76949 18.2166C8.71443 18.1615 8.68338 18.0869 8.68311 18.0091V7.66734C8.68338 7.58948 8.71443 7.51488 8.76949 7.45982C8.82455 7.40476 8.89915 7.37371 8.97702 7.37344H11.8353C11.9132 7.37371 11.9878 7.40476 12.0428 7.45982C12.0979 7.51488 12.1289 7.58948 12.1292 7.66734V7.88391C12.1515 7.87016 12.1739 7.85469 12.1962 7.84094C12.8371 7.44153 13.5775 7.23067 14.3326 7.2325C15.5598 7.2325 16.5722 7.63812 17.3456 8.43906C18.2995 9.42734 18.4989 10.8023 18.4989 11.7803V18.0091Z" fill="#4E286B"/>
</g>
<defs>
<clipPath id="clip0_335_149">
<rect width="22" height="22" fill="white"/>
</clipPath>
</defs>
</svg>
