<svg width="22" height="21" viewBox="0 0 22 21" fill="none" xmlns="http://www.w3.org/2000/svg">
<g clip-path="url(#clip0_57_407)">
<path d="M10.572 5.25C9.87977 5.25 9.20308 5.45527 8.62751 5.83986C8.05194 6.22444 7.60334 6.77107 7.33843 7.41061C7.07352 8.05015 7.00421 8.75388 7.13926 9.43282C7.27431 10.1117 7.60765 10.7354 8.09713 11.2249C8.58662 11.7144 9.21026 12.0477 9.88919 12.1827C10.5681 12.3178 11.2719 12.2485 11.9114 11.9836C12.5509 11.7187 13.0976 11.2701 13.4822 10.6945C13.8667 10.1189 14.072 9.44223 14.072 8.75C14.072 7.82174 13.7033 6.9315 13.0469 6.27513C12.3905 5.61875 11.5003 5.25 10.572 5.25ZM10.572 10.5C10.2259 10.5 9.88755 10.3974 9.59976 10.2051C9.31197 10.0128 9.08767 9.73947 8.95522 9.4197C8.82277 9.09993 8.78811 8.74806 8.85563 8.40859C8.92316 8.06913 9.08983 7.75731 9.33457 7.51256C9.57931 7.26782 9.89113 7.10115 10.2306 7.03363C10.5701 6.9661 10.9219 7.00076 11.2417 7.13321C11.5615 7.26566 11.8348 7.48997 12.0271 7.77775C12.2194 8.06554 12.322 8.40388 12.322 8.75C12.322 9.21413 12.1376 9.65925 11.8094 9.98744C11.4813 10.3156 11.0361 10.5 10.572 10.5Z" fill="#623882"/>
<path d="M10.572 21C9.83521 21.0038 9.10823 20.831 8.45194 20.4961C7.79565 20.1612 7.22915 19.6739 6.79988 19.075C3.46526 14.4752 1.77388 11.0172 1.77388 8.79642C1.77388 6.46301 2.70082 4.22517 4.35079 2.5752C6.00076 0.925234 8.2386 -0.00170898 10.572 -0.00170898C12.9054 -0.00170898 15.1433 0.925234 16.7932 2.5752C18.4432 4.22517 19.3701 6.46301 19.3701 8.79642C19.3701 11.0172 17.6788 14.4752 14.3441 19.075C13.9149 19.6739 13.3484 20.1612 12.6921 20.4961C12.0358 20.831 11.3088 21.0038 10.572 21ZM10.572 1.90842C8.74537 1.9105 6.99415 2.63705 5.70252 3.92868C4.41089 5.22031 3.68434 6.97153 3.68226 8.79817C3.68226 10.5569 5.33863 13.8093 8.34513 17.9559C8.60036 18.3075 8.9352 18.5936 9.32226 18.7909C9.70931 18.9882 10.1376 19.0911 10.572 19.0911C11.0064 19.0911 11.4347 18.9882 11.8218 18.7909C12.2088 18.5936 12.5436 18.3075 12.7989 17.9559C15.8054 13.8093 17.4618 10.5569 17.4618 8.79817C17.4597 6.97153 16.7331 5.22031 15.4415 3.92868C14.1499 2.63705 12.3986 1.9105 10.572 1.90842Z" fill="#623882"/>
</g>
<defs>
<clipPath id="clip0_57_407">
<rect width="21" height="21" fill="white" transform="translate(0.0720062)"/>
</clipPath>
</defs>
</svg>
