<svg width="25" height="25" viewBox="0 0 25 25" fill="none" xmlns="http://www.w3.org/2000/svg">
<g clip-path="url(#clip0_352_28)">
<path d="M21.875 1.04167H3.125C2.2962 1.04167 1.50134 1.37091 0.915291 1.95696C0.32924 2.54301 0 3.33787 0 4.16667L0 23.9583H25V4.16667C25 3.33787 24.6708 2.54301 24.0847 1.95696C23.4987 1.37091 22.7038 1.04167 21.875 1.04167ZM3.125 3.125H21.875C22.1513 3.125 22.4162 3.23475 22.6116 3.4301C22.8069 3.62545 22.9167 3.8904 22.9167 4.16667V4.86146L14.7104 13.0688C14.1234 13.6535 13.3286 13.9817 12.5 13.9817C11.6714 13.9817 10.8766 13.6535 10.2896 13.0688L2.08333 4.86146V4.16667C2.08333 3.8904 2.19308 3.62545 2.38843 3.4301C2.58378 3.23475 2.84873 3.125 3.125 3.125ZM2.08333 21.875V7.8125L8.81667 14.5417C9.7944 15.5169 11.119 16.0646 12.5 16.0646C13.881 16.0646 15.2056 15.5169 16.1833 14.5417L22.9167 7.8125V21.875H2.08333Z" fill="#3E185B"/>
<g clip-path="url(#clip1_352_28)">
<path d="M255.192 104.6L199.725 -95.3147C187.881 -138.079 162.073 -175.653 126.409 -202.056C90.7445 -228.46 47.2733 -242.175 2.91405 -241.02C-41.4452 -239.864 -84.1434 -223.904 -118.385 -195.68C-152.626 -167.456 -176.443 -128.59 -186.045 -85.2666L-228.947 107.8C-231.023 117.153 -230.972 126.854 -228.798 136.185C-226.625 145.516 -222.384 154.24 -216.389 161.714C-210.394 169.187 -202.797 175.22 -194.16 179.365C-185.522 183.511 -176.064 185.664 -166.483 185.667H-89.5333C-84.637 209.78 -71.5551 231.458 -52.5042 247.029C-33.4532 262.601 -9.60489 271.107 15 271.107C39.6049 271.107 63.4533 262.601 82.5042 247.029C101.555 231.458 114.637 209.78 119.533 185.667H193.56C203.418 185.662 213.142 183.38 221.974 178.999C230.805 174.618 238.505 168.256 244.472 160.409C250.44 152.562 254.514 143.443 256.378 133.762C258.241 124.082 257.821 114.101 255.192 104.6ZM15 228.333C1.81047 228.279 -11.0401 224.15 -21.7935 216.513C-32.547 208.875 -40.6782 198.102 -45.0746 185.667H75.0747C70.6783 198.102 62.5471 208.875 51.7936 216.513C41.0401 224.15 28.1896 228.279 15 228.333ZM210.52 134.573C208.53 137.212 205.95 139.348 202.986 140.811C200.023 142.275 196.758 143.024 193.453 143H-166.483C-169.677 142.999 -172.831 142.282 -175.71 140.899C-178.59 139.517 -181.123 137.506 -183.121 135.014C-185.12 132.522 -186.533 129.613 -187.257 126.501C-187.981 123.39 -187.997 120.156 -187.304 117.037L-144.403 -76.0293C-136.843 -110.03 -118.135 -140.528 -91.2516 -162.676C-64.3684 -184.823 -30.8533 -197.348 3.96587 -198.26C38.7851 -199.173 72.91 -188.419 100.916 -167.71C128.922 -147.001 149.201 -117.524 158.531 -83.9653L213.997 115.949C214.903 119.111 215.06 122.439 214.457 125.672C213.853 128.904 212.505 131.952 210.52 134.573Z" fill="#3E185B"/>
</g>
</g>
<defs>
<clipPath id="clip0_352_28">
<rect width="25" height="25" fill="white"/>
</clipPath>
<clipPath id="clip1_352_28">
<rect width="512" height="512" fill="white" transform="translate(-241 -241)"/>
</clipPath>
</defs>
</svg>
