<?xml version="1.0" standalone="no"?>
<svg xmlns="http://www.w3.org/2000/svg" version="1.1" xmlns:xlink="http://www.w3.org/1999/xlink" width="512" height="512" x="0" y="0" viewBox="0 0 64 64" style="enable-background:new 0 0 512 512" xml:space="preserve"><g><path d="M60.64 12.77c.23-.19.36-.47.36-.77V6c0-.55-.45-1-1-1H40c-.22 0-.44.07-.61.21l-36 28c-.16.14-.27.34-.29.37-.06.13-.1.27-.1.42v6c0 .55.45 1 1 1h6c.55 0 1 .45 1 1v8c0 .55-.45 1-1 1H4c-.55 0-1 .45-1 1v6c0 .55.45 1 1 1h22c.23 0 .46-.08.64-.23l34-28c.23-.19.36-.47.36-.77v-6c0-.55-.45-1-1-1h-6c-.55 0-1-.45-1-1v-2.94zM40.35 7h16.87L25.65 33H6.91L40.34 7zM5 53h5c1.65 0 3-1.35 3-3v-8c0-1.65-1.35-3-3-3H5v-4h20v4h-5c-1.65 0-3 1.35-3 3v8c0 1.65 1.35 3 3 3h5v4H5zm22 2.88v-3.41l32-26.35v3.41zM54 25h3.21L25.64 51H20c-.55 0-1-.45-1-1v-8c0-.55.45-1 1-1h6c.23 0 .46-.08.64-.23L51 20.71V22c0 1.65 1.35 3 3 3zM27 37.88v-3.41L59 8.12v3.41z" fill="#3e185b" opacity="1" data-original="#000000"/></g></svg>