<svg width="59" height="59" viewBox="0 0 59 59" fill="none" xmlns="http://www.w3.org/2000/svg">
<path d="M50.3958 34.4167H24.5833V8.60417C24.5833 3.85958 20.7237 0 15.9792 0H8.60417C3.85958 0 0 3.85958 0 8.60417V47.9375C0 54.0366 4.96338 59 11.0625 59H50.3958C55.1404 59 59 55.1404 59 50.3958V43.0208C59 38.2762 55.1404 34.4167 50.3958 34.4167ZM56.5417 50.3958C56.5417 53.7859 53.7859 56.5417 50.3958 56.5417H11.0625C6.31792 56.5417 2.45833 52.6821 2.45833 47.9375V8.60417C2.45833 5.21413 5.21658 2.45833 8.60417 2.45833H15.9792C19.3667 2.45833 22.125 5.21413 22.125 8.60417V9.83333H15.9792C15.6532 9.83333 15.3405 9.96283 15.11 10.1933C14.8795 10.4239 14.75 10.7365 14.75 11.0625C14.75 11.3885 14.8795 11.7011 15.11 11.9317C15.3405 12.1622 15.6532 12.2917 15.9792 12.2917H22.125V22.125H15.9792C15.6532 22.125 15.3405 22.2545 15.11 22.485C14.8795 22.7155 14.75 23.0282 14.75 23.3542C14.75 23.6802 14.8795 23.9928 15.11 24.2233C15.3405 24.4538 15.6532 24.5833 15.9792 24.5833H22.125V34.4167H15.9792C15.6532 34.4167 15.3405 34.5462 15.11 34.7767C14.8795 35.0072 14.75 35.3198 14.75 35.6458C14.75 35.9718 14.8795 36.2845 15.11 36.515C15.3405 36.7455 15.6532 36.875 15.9792 36.875H22.125V43.0208C22.125 43.3468 22.2545 43.6595 22.485 43.89C22.7155 44.1205 23.0282 44.25 23.3542 44.25C23.6802 44.25 23.9928 44.1205 24.2233 43.89C24.4538 43.6595 24.5833 43.3468 24.5833 43.0208V36.875H34.4167V43.0208C34.4167 43.3468 34.5462 43.6595 34.7767 43.89C35.0072 44.1205 35.3198 44.25 35.6458 44.25C35.9718 44.25 36.2845 44.1205 36.515 43.89C36.7455 43.6595 36.875 43.3468 36.875 43.0208V36.875H46.7083V43.0208C46.7083 43.3468 46.8378 43.6595 47.0683 43.89C47.2989 44.1205 47.6115 44.25 47.9375 44.25C48.2635 44.25 48.5761 44.1205 48.8067 43.89C49.0372 43.6595 49.1667 43.3468 49.1667 43.0208V36.875H50.3958C53.7859 36.875 56.5417 39.6308 56.5417 43.0208V50.3958Z" fill="#3E185B"/>
</svg>
