<svg width="27" height="27" viewBox="0 0 27 27" fill="none" xmlns="http://www.w3.org/2000/svg">
<g clip-path="url(#clip0_356_34)">
<path d="M26.1663 18.225L23.2413 7.68262C22.6167 5.42747 21.2558 3.44603 19.375 2.05367C17.4943 0.661311 15.2019 -0.0619614 12.8626 -0.00103179C10.5234 0.0598978 8.2717 0.901528 6.466 2.38991C4.66029 3.87829 3.40432 5.92789 2.89797 8.2125L0.635591 18.3937C0.52612 18.887 0.52879 19.3985 0.643404 19.8906C0.758018 20.3827 0.981652 20.8427 1.2978 21.2369C1.61396 21.631 2.01456 21.9491 2.47006 22.1677C2.92557 22.3863 3.42434 22.4999 3.92959 22.5H7.98747C8.24567 23.7716 8.93554 24.9148 9.94017 25.7359C10.9448 26.5571 12.2024 27.0056 13.5 27.0056C14.7975 27.0056 16.0551 26.5571 17.0598 25.7359C18.0644 24.9148 18.7543 23.7716 19.0125 22.5H22.9162C23.4361 22.4998 23.9489 22.3794 24.4146 22.1484C24.8803 21.9174 25.2863 21.5818 25.601 21.1681C25.9157 20.7543 26.1306 20.2733 26.2289 19.7628C26.3271 19.2523 26.305 18.726 26.1663 18.225ZM13.5 24.75C12.8044 24.7471 12.1268 24.5294 11.5597 24.1266C10.9926 23.7239 10.5638 23.1558 10.332 22.5H16.668C16.4361 23.1558 16.0073 23.7239 15.4403 24.1266C14.8732 24.5294 14.1955 24.7471 13.5 24.75ZM23.8106 19.8056C23.7056 19.9448 23.5696 20.0574 23.4133 20.1346C23.257 20.2117 23.0849 20.2513 22.9106 20.25H3.92959C3.76113 20.25 3.59484 20.2121 3.44297 20.1392C3.2911 20.0663 3.15754 19.9603 3.05215 19.8288C2.94676 19.6974 2.87223 19.544 2.83405 19.3799C2.79588 19.2159 2.79504 19.0453 2.83159 18.8809L5.09397 8.69962C5.49261 6.90661 6.47919 5.2983 7.89685 4.13038C9.31452 2.96245 11.0819 2.30194 12.9181 2.25384C14.7543 2.20574 16.5538 2.77281 18.0307 3.8649C19.5076 4.957 20.577 6.51144 21.069 8.28112L23.994 18.8235C24.0417 18.9902 24.05 19.1657 24.0182 19.3362C23.9864 19.5067 23.9153 19.6674 23.8106 19.8056Z" fill="#3E185B"/>
</g>
<defs>
<clipPath id="clip0_356_34">
<rect width="27" height="27" fill="white"/>
</clipPath>
</defs>
</svg>
