<svg width="38" height="38" viewBox="0 0 38 38" fill="none" xmlns="http://www.w3.org/2000/svg">
<g clip-path="url(#clip0_16_92)">
<path d="M31.6667 4.75C31.6667 2.13117 29.5355 0 26.9167 0H4.75C2.13117 0 0 2.13117 0 4.75V7.91667C0 10.5355 2.13117 12.6667 4.75 12.6667H26.9167C29.5355 12.6667 31.6667 10.5355 31.6667 7.91667C33.4131 7.91667 34.8333 9.33692 34.8333 11.0833V12.6667C34.8333 14.4131 33.4131 15.8333 31.6667 15.8333H20.5833C17.0905 15.8333 14.25 18.6738 14.25 22.1667V22.458C13.3266 22.7835 12.5265 23.3868 11.9595 24.1851C11.3925 24.9834 11.0865 25.9375 11.0833 26.9167V33.25C11.0833 35.8688 13.2145 38 15.8333 38C18.4522 38 20.5833 35.8688 20.5833 33.25V26.9167C20.5802 25.9375 20.2741 24.9834 19.7072 24.1851C19.1402 23.3868 18.3401 22.7835 17.4167 22.458V22.1667C17.4167 20.4202 18.8369 19 20.5833 19H31.6667C35.1595 19 38 16.1595 38 12.6667V11.0833C38 7.5905 35.1595 4.75 31.6667 4.75ZM28.5 7.91667C28.5 8.79067 27.7891 9.5 26.9167 9.5H4.75C3.87758 9.5 3.16667 8.79067 3.16667 7.91667V4.75C3.16667 3.876 3.87758 3.16667 4.75 3.16667H26.9167C27.7891 3.16667 28.5 3.876 28.5 4.75V7.91667ZM17.4167 33.25C17.3984 33.6577 17.2236 34.0426 16.9287 34.3246C16.6338 34.6067 16.2414 34.7641 15.8333 34.7641C15.4253 34.7641 15.0329 34.6067 14.738 34.3246C14.443 34.0426 14.2682 33.6577 14.25 33.25V26.9167C14.2682 26.509 14.443 26.1241 14.738 25.842C15.0329 25.56 15.4253 25.4026 15.8333 25.4026C16.2414 25.4026 16.6338 25.56 16.9287 25.842C17.2236 26.1241 17.3984 26.509 17.4167 26.9167V33.25Z" fill="#3E185B"/>
</g>
<defs>
<clipPath id="clip0_16_92">
<rect width="38" height="38" fill="white"/>
</clipPath>
</defs>
</svg>
