<svg width="47" height="45" viewBox="0 0 47 45" fill="none" xmlns="http://www.w3.org/2000/svg">
<path d="M40.7079 44.7416C40.4858 44.8981 40.2208 44.9821 39.9491 44.9822C39.7375 44.9819 39.5291 44.9309 39.3414 44.8333C39.1537 44.7357 38.9922 44.5945 38.8704 44.4215L34.902 38.7773C34.7838 38.6104 34.7204 38.4109 34.7205 38.2064V33.3112C34.7199 33.1873 34.6846 33.066 34.6187 32.9611C34.5528 32.8562 34.4589 32.7717 34.3476 32.7173L32.6556 31.9026C32.672 31.6683 32.6786 31.4441 32.6786 31.223C32.6786 30.4181 32.5893 29.6231 32.4114 28.8577L36.8001 30.9696C36.9676 31.0503 37.109 31.1766 37.208 31.3341C37.3069 31.4916 37.3594 31.6738 37.3594 31.8598V37.4775C37.3594 37.6128 37.4024 37.7447 37.4783 37.857L41.0277 42.9041C41.1275 43.0457 41.1983 43.2056 41.2363 43.3746C41.2742 43.5436 41.2784 43.7185 41.2487 43.8891C41.219 44.0598 41.156 44.2229 41.0632 44.3692C40.9704 44.5155 40.8496 44.642 40.7079 44.7416ZM46.926 25.0443C46.9329 25.222 46.9038 25.3991 46.8406 25.5653C46.7774 25.7314 46.6814 25.8831 46.5582 26.0112C46.435 26.1394 46.2872 26.2413 46.1236 26.311C45.9601 26.3807 45.7842 26.4166 45.6064 26.4167H45.5768L39.5303 26.2814C39.3181 26.2779 39.113 26.2049 38.9463 26.0736L35.4725 23.3852C35.3497 23.2889 35.1964 23.2397 35.0404 23.2466L30.4222 23.4346C30.6494 22.5675 30.7669 21.6754 30.7718 20.7791L35.7762 20.5746C36.0096 20.5642 36.239 20.6379 36.4226 20.7824L39.9622 23.5201C40.073 23.6084 40.21 23.6571 40.3516 23.6588L45.5637 23.7777C46.2729 23.7941 46.8961 24.3351 46.926 25.0443ZM41.2754 6.31366L36.6734 9.27936C36.5803 9.3388 36.5037 9.42072 36.4507 9.51756C36.3976 9.61441 36.3698 9.72306 36.3698 9.83349V16.0422C36.3698 16.2659 36.2938 16.483 36.1543 16.658C36.0149 16.8329 35.8201 16.9554 35.602 17.0052L30.4452 18.183C31.2931 17.3617 31.8075 16.3291 31.9297 15.1384L33.2196 14.8446C33.3647 14.8104 33.494 14.7284 33.5867 14.6117C33.6794 14.495 33.7302 14.3505 33.7307 14.2014V8.57342C33.7308 8.40779 33.7725 8.24484 33.8521 8.09958C33.9317 7.95432 34.0466 7.83143 34.1862 7.74222L39.8929 4.064C40.0479 3.96411 40.2221 3.89779 40.4043 3.86933C40.5865 3.84087 40.7727 3.8509 40.9508 3.89876C41.1288 3.94663 41.2949 4.03127 41.4383 4.14724C41.5817 4.26321 41.6992 4.40793 41.7832 4.57208C42.0998 5.18543 41.8558 5.94095 41.2752 6.31389L41.2754 6.31366ZM6.30129 44.7416C6.52338 44.8981 6.78841 44.9821 7.0601 44.9822C7.27165 44.9819 7.48004 44.9309 7.66775 44.8333C7.85545 44.7357 8.01698 44.5945 8.13875 44.4215L12.1072 38.7773C12.2254 38.6104 12.2888 38.4109 12.2886 38.2064V33.3112C12.2893 33.1873 12.3245 33.0661 12.3904 32.9611C12.4562 32.8562 12.5501 32.7718 12.6613 32.7173L14.3536 31.9026C14.3379 31.6764 14.3302 31.4497 14.3305 31.223C14.3305 30.4181 14.4198 29.6231 14.5977 28.8577L10.2089 30.9696C10.0413 31.0503 9.89989 31.1766 9.80094 31.3341C9.702 31.4916 9.64953 31.6738 9.64957 31.8598V37.4775C9.64876 37.613 9.60743 37.7452 9.53089 37.857L5.98122 42.9041C5.88146 43.0457 5.8106 43.2056 5.77269 43.3747C5.73479 43.5437 5.73058 43.7185 5.7603 43.8892C5.79003 44.0598 5.85311 44.223 5.94594 44.3692C6.03877 44.5155 6.15952 44.642 6.30129 44.7416ZM0.0740223 25.0443C0.0671295 25.222 0.0961513 25.3991 0.15935 25.5653C0.222548 25.7314 0.318624 25.8831 0.441824 26.0112C0.565024 26.1394 0.712815 26.2413 0.876348 26.311C1.03988 26.3807 1.21579 26.4166 1.39355 26.4167H1.42316L7.46971 26.2814C7.68185 26.2779 7.88699 26.2049 8.05368 26.0736L11.5275 23.3852C11.6503 23.2889 11.8036 23.2397 11.9596 23.2466L16.5778 23.4346C16.3506 22.5676 16.2331 21.6754 16.2282 20.7791L11.2238 20.5746C10.9904 20.5642 10.761 20.6379 10.5773 20.7824L7.03778 23.5201C6.927 23.6084 6.78999 23.6571 6.64838 23.6588L1.43632 23.7777C0.727087 23.7941 0.103867 24.3351 0.0740223 25.0443ZM5.734 6.31366L10.3358 9.27936C10.4288 9.33883 10.5053 9.42076 10.5584 9.5176C10.6114 9.61445 10.6392 9.72308 10.6392 9.83349V16.0422C10.6392 16.266 10.7152 16.4831 10.8547 16.658C10.9942 16.833 11.189 16.9554 11.4071 17.0052L16.564 18.183C15.7161 17.3617 15.2014 16.3291 15.0795 15.1384L13.7896 14.8446C13.6445 14.8105 13.5151 14.7284 13.4223 14.6117C13.3295 14.495 13.2788 14.3505 13.2782 14.2014V8.57342C13.2782 8.40781 13.2364 8.24487 13.1569 8.09962C13.0773 7.95436 12.9625 7.83146 12.823 7.74222L7.11603 4.064C6.96103 3.96415 6.78683 3.89787 6.60466 3.86943C6.42248 3.84099 6.23637 3.85102 6.05831 3.89889C5.88025 3.94675 5.71419 4.03138 5.57082 4.14733C5.42746 4.26327 5.30997 4.40796 5.22593 4.57208C4.90915 5.18543 5.15308 5.94072 5.734 6.31366ZM30.389 31.2232C30.389 35.4092 27.3082 43.5278 23.5045 43.5278C19.7008 43.5278 16.6199 35.4092 16.6199 31.2232C16.6199 29.5869 17.0948 28.0662 17.8967 26.8292C17.9526 26.7399 18.0548 26.6938 18.1639 26.6872C19.4932 28.4619 21.3965 29.5737 23.5045 29.5737C25.6124 29.5737 27.5159 28.4622 28.8453 26.6872C28.9541 26.6938 29.0563 26.7401 29.1125 26.8292C29.9141 28.0662 30.3893 29.5869 30.3893 31.223L30.389 31.2232Z" fill="#3E185B"/>
<path d="M28.4825 20.6207C28.4825 24.1734 26.2558 27.2844 23.5045 27.2844C20.7531 27.2844 18.5267 24.1732 18.5267 20.6207C18.5267 20.4022 18.5344 20.1853 18.5511 19.9712C18.5681 19.7514 18.7885 19.6055 18.9941 19.684C20.2525 20.1643 21.7763 20.4228 23.5045 20.4228C25.2326 20.4228 26.7566 20.1643 28.0148 19.684C28.2204 19.6055 28.4411 19.7514 28.458 19.9712C28.4745 20.185 28.4825 20.4024 28.4825 20.6207ZM27.8733 9.26246C28.9332 8.22094 29.5463 6.89225 29.6025 5.47191C29.6875 3.32237 28.6063 1.30536 26.7811 0.206736C26.4815 0.0328642 26.1255 -0.0162412 25.79 0.070016C25.4545 0.156273 25.1664 0.370977 24.9878 0.667796C24.8092 0.964614 24.7545 1.31975 24.8354 1.65657C24.9163 1.99338 25.1265 2.28487 25.4204 2.46814C26.4203 3.06974 27.0123 4.18059 26.9653 5.36757C26.9409 5.9915 26.7005 6.59192 26.2796 7.10657C25.4453 6.2554 24.503 5.69422 23.5045 5.69422C22.5135 5.69422 21.5779 6.24671 20.7484 7.08683C20.288 6.51437 20.0149 5.81736 20.0431 5.1039C20.0854 4.04053 20.637 3.06786 21.5199 2.50245C21.808 2.31072 22.0093 2.01347 22.0804 1.67475C22.1515 1.33603 22.0866 0.982946 21.8999 0.691562C21.7131 0.400177 21.4194 0.193815 21.0819 0.116932C20.7445 0.0400492 20.3903 0.0987993 20.0958 0.280526C18.4884 1.311 17.4826 3.07491 17.4062 4.99956C17.3421 6.62271 18.0196 8.14269 19.1375 9.25964C18.0287 11.1791 17.3432 13.3931 17.3432 14.5918C17.3432 16.997 20.1019 18.1328 23.5049 18.1328C26.908 18.1328 29.6662 16.997 29.6662 14.5918C29.6662 13.3938 28.9814 11.1815 27.8738 9.2627L27.8733 9.26246Z" fill="#3E185B"/>
</svg>
