<?xml version="1.0" standalone="no"?>
<svg xmlns="http://www.w3.org/2000/svg" version="1.1" xmlns:xlink="http://www.w3.org/1999/xlink" width="512" height="512" x="0" y="0" viewBox="0 0 52 56" style="enable-background:new 0 0 512 512" xml:space="preserve" class=""><g><path fill="#3e185b" fill-rule="nonzero" d="M12 17a1 1 0 0 1 1-1h4a1 1 0 0 1 1 1v3h-6zm16 37a2 2 0 1 1-4 0v-6h4zm2-9a1 1 0 0 1-1 1h-6a1 1 0 0 1-1-1v-3h8zm5-5H17c-7.892-.01-14.43-6.126-14.967-14h47.934C49.431 33.874 42.892 39.99 35 40zm17-17a1 1 0 0 1-1 1H1a1 1 0 0 1 0-2h50a1 1 0 0 1 1 1zm-18-6a1 1 0 0 1 1-1h4a1 1 0 0 1 1 1v3h-6zM21.789 2.077a4.008 4.008 0 0 0-3.972 1.5A4.213 4.213 0 0 0 17 6.16V7a1 1 0 0 1-2 0v-.756A6.141 6.141 0 0 1 20.206.051 5.972 5.972 0 0 1 25.3 1.818 6.265 6.265 0 0 1 27 6.22V20h-2V6.118a4.066 4.066 0 0 0-3.211-4.041z" opacity="1" data-original="#000000"/></g></svg>