<svg width="19" height="20" viewBox="0 0 19 20" fill="none" xmlns="http://www.w3.org/2000/svg">
<path d="M11.151 4.47709C12.1296 3.64255 13.1629 2.39236 13.1629 0.818182V0H4.98111V0.818182C4.98111 2.39236 6.01448 3.64173 6.99302 4.47709C3.14348 5.84918 0.0720215 10.7378 0.0720215 14.7273C0.0720215 17.4346 2.27375 19.6364 4.98111 19.6364H13.1629C15.8703 19.6364 18.072 17.4346 18.072 14.7273C18.072 10.7378 15.0006 5.84918 11.151 4.47709ZM6.78684 1.63636H11.3547C10.9285 2.664 9.80838 3.52636 9.07775 3.96982C8.46248 3.59345 7.23602 2.73273 6.78766 1.63636H6.78684ZM13.1629 18H4.98111C3.1762 18 1.70839 16.5322 1.70839 14.7273C1.70839 10.5046 5.46384 5.74118 9.07038 5.74118C12.6769 5.74118 16.4357 10.5055 16.4357 14.7273C16.4357 16.5322 14.9678 18 13.1629 18ZM7.43566 10.6364C7.43566 10.9456 7.65739 11.2075 7.96257 11.2582L10.4515 11.673C10.9814 11.7599 11.463 12.0327 11.8101 12.4424C12.1572 12.8522 12.347 13.3721 12.3456 13.9091C12.3456 15.2624 11.2443 16.3636 9.89102 16.3636V17.1818H8.25466V16.3636C6.90139 16.3636 5.80011 15.2624 5.80011 13.9091H7.43648C7.43648 14.3599 7.80384 14.7273 8.25466 14.7273H9.89102C10.3418 14.7273 10.7092 14.3599 10.7092 13.9091C10.7096 13.7597 10.6568 13.6151 10.5602 13.5012C10.4637 13.3872 10.3297 13.3114 10.1823 13.2873L7.69338 12.8725C7.16348 12.7856 6.68183 12.5128 6.33476 12.103C5.98768 11.6933 5.79785 11.1733 5.79929 10.6364C5.79929 9.28309 6.90057 8.18182 8.25384 8.18182V7.36364H9.8902V8.18182C11.2435 8.18182 12.3447 9.28309 12.3447 10.6364H10.7084C10.7084 10.1855 10.341 9.81818 9.8902 9.81818H8.25384C7.80302 9.81818 7.43566 10.1855 7.43566 10.6364Z" fill="#3E185B"/>
</svg>
