<svg width="50" height="50" viewBox="0 0 50 50" fill="none" xmlns="http://www.w3.org/2000/svg">
<g clip-path="url(#clip0_352_2)">
<path d="M25 50C38.8071 50 50 38.8071 50 25C50 11.1929 38.8071 0 25 0C11.1929 0 0 11.1929 0 25C0 38.8071 11.1929 50 25 50Z" fill="#D1D1D3"/>
<path d="M46.6016 37.5781C44.4922 41.2109 41.4453 44.2969 37.8125 46.4453C37.3047 46.7578 36.7969 47.0312 36.2891 47.3047C32.8906 49.0234 29.0625 50 25 50C20.9375 50 17.1094 49.0234 13.7109 47.3047C13.2031 47.0312 12.6563 46.7578 12.1875 46.4453C8.55469 44.2578 5.54688 41.2109 3.4375 37.5781C4.0625 34.0625 6.5625 31.1719 9.96094 30L17.5781 27.3828L18.6719 26.9922H18.7109L19.5312 25.9375H30.3906L31.3672 26.9922H31.4062L32.5 27.3828L40.0391 29.9609C43.5156 31.1719 45.9766 34.0625 46.6016 37.5781Z" fill="#5E86C3"/>
<path d="M18.5547 21.4062C18.7891 23.2812 19.0234 25.5859 18.6719 27.0703C18.8281 27.5 18.9844 27.9687 19.1406 28.3984C20 30.9375 22.3828 31.7969 25.0781 31.7969C27.7734 31.7969 30.1563 30.8984 31.0156 28.3594C31.1719 27.9297 31.3281 27.5 31.4844 27.0703C31.1328 25.5859 31.4063 23.2812 31.6016 21.4062C31.8359 19.4922 32.1094 18.2812 32.1875 18.3594C28.2813 14.4531 21.9141 14.4531 18.0078 18.3594C18.0469 18.2812 18.3594 19.4922 18.5547 21.4062Z" fill="#F1B97C"/>
<path d="M34.8184 16.8295C35.1019 15.2798 34.5917 13.8882 33.6789 13.7212C32.7661 13.5542 31.7963 14.6751 31.5128 16.2248C31.2293 17.7744 31.7395 19.1661 32.6523 19.333C33.5651 19.5 34.5349 18.3791 34.8184 16.8295Z" fill="#F8CFA3"/>
<path d="M33.7891 14.3359C33.6719 15.5078 33.5547 16.2891 33.5547 16.2891C33.3594 17.2656 33.2031 18.0859 33.0469 18.7891C33.5547 18.5937 34.1016 17.8516 34.2969 16.7187C34.5313 15.5859 34.2188 14.6094 33.7891 14.3359Z" fill="#F1B97C"/>
<path d="M24.9999 3.04688C15.5468 3.47656 15.9765 10.6641 15.9765 10.6641C15.9765 13.5156 16.4452 16.2891 16.4452 16.2891C17.539 22.3438 18.2421 22.7734 18.2421 22.7734C19.1015 24.0234 20.2734 25.0391 21.2109 25.7031C22.1093 26.3672 23.2421 26.7578 24.3359 26.7578H25.6249C26.7577 26.7578 27.8515 26.4063 28.7499 25.7031C29.6874 25 30.8202 24.0234 31.7187 22.7734C31.7187 22.7734 32.4218 22.3438 33.5156 16.2891C33.5156 16.2891 33.9843 13.4766 33.9843 10.6641C33.9843 10.6641 34.414 3.47656 24.9999 3.04688Z" fill="#F8CFA3"/>
<path d="M17.316 19.3322C18.2288 19.1652 18.739 17.7736 18.4555 16.2239C18.172 14.6742 17.2022 13.5533 16.2894 13.7203C15.3766 13.8873 14.8664 15.2789 15.1499 16.8286C15.4334 18.3783 16.4031 19.4992 17.316 19.3322Z" fill="#F8CFA3"/>
<path d="M16.1719 14.3359C16.2891 15.5078 16.4062 16.2891 16.4062 16.2891C16.6016 17.2656 16.7578 18.0859 16.9141 18.7891C16.4062 18.5937 15.8594 17.8516 15.6641 16.7187C15.4687 15.5859 15.7422 14.6094 16.1719 14.3359Z" fill="#F1B97C"/>
<path d="M25.1562 31.875L25.1172 31.8359L25.1562 31.7969V31.875Z" fill="#5E86C3"/>
<path d="M32.5781 27.3828V27.4219C32.4219 27.8125 32.2656 28.2422 32.1484 28.7109C31.6406 30.1953 30.7031 31.3281 29.2969 32.0313C28.1641 32.6172 26.7578 32.9297 25.1172 32.9297C21.5234 32.9297 19.0234 31.4453 18.0859 28.75C17.9297 28.2422 17.7734 27.8516 17.6172 27.4609C17.6172 27.4219 17.6172 27.4219 17.6172 27.3828L18.7109 26.9922V27.0312C18.8672 27.4609 19.0234 27.9297 19.1797 28.3594C20.0391 30.8984 22.4219 31.7578 25.1172 31.7578C27.8125 31.7578 30.1953 30.8594 31.0547 28.3203C31.2109 27.8906 31.3672 27.4609 31.5234 27.0312V26.9922L32.5781 27.3828Z" fill="#E7E7E8"/>
<path d="M13.7109 47.3047C13.2031 47.0312 12.6562 46.7578 12.1875 46.4453V41.8359L13.7109 47.3047Z" fill="#4C5AA5"/>
<path d="M37.8516 41.8359V46.4453C37.3438 46.7578 36.8359 47.0312 36.3281 47.3047L37.8516 41.8359Z" fill="#4C5AA5"/>
<path d="M16.4844 16.5625H16.6797C16.7188 15.3516 16.9922 10.625 18.2813 9.375C18.2813 9.375 22.6954 13.3594 32.7344 11.9141C32.6172 13.75 32.8125 15.2734 33.2032 16.5625H33.5157C33.5938 15.6641 33.8672 13.3984 34.5704 11.7578C35.1172 10.4688 35.2735 9.02344 34.8829 7.65625C34.1797 5.46875 32.0704 2.92969 25.8594 2.30469C24.2969 2.14844 22.7344 2.26563 21.25 2.69531C19.4532 3.24219 17.3829 4.375 16.6797 6.75781C16.6797 6.75781 13.1641 8.00781 16.25 15.3516L16.4844 16.5625Z" fill="#4C525E"/>
<path d="M18.6719 5.78125C18.6719 5.78125 18.75 5.74219 18.8672 5.66406C20.1172 4.92188 21.7578 4.375 23.5547 4.21875C20.3906 4.60938 18.5938 6.17188 18.5938 6.17188C18.5938 6.17188 20.5469 4.64844 24.2969 4.45313C21.7578 4.72656 20.2734 5.82031 20.2734 5.82031C20.2734 5.82031 22.1484 4.92188 22.9688 4.92188C21.25 5.27344 19.6875 6.28906 20.3516 5.9375C21.5625 5.35156 23.0859 5 24.7656 4.96094C21.8359 5.07813 20.0781 6.36719 20.0781 6.36719C20.0781 6.36719 22.0703 5.07813 25.3906 5.19531C21.0547 5.27344 19.2578 7.03125 19.2578 7.03125C19.2578 7.03125 20.3125 6.25 22.5 5.74219C21.9922 5.9375 20.8594 6.21094 19.7266 6.95313C19.3359 7.1875 19.1797 7.38281 19.1797 7.38281C20.1953 6.64063 22.1094 5.89844 24.1797 5.82031C21.9531 6.09375 20.6641 7.10938 20.6641 7.10938C20.6641 7.07031 21.6797 6.64063 21.7188 6.64063C22.5 6.36719 23.0469 6.28906 23.0469 6.28906C21.4063 6.67969 20.625 7.30469 20.625 7.30469C20.625 7.30469 20.6641 7.26563 20.7813 7.22656C21.9531 6.64063 23.3203 6.36719 24.6484 6.32813C22.0312 6.44531 20.5469 7.65625 20.5469 7.65625C20.5469 7.65625 22.3438 6.52344 25.2344 6.64063C23.125 6.71875 21.9531 7.57813 21.9531 7.57813C21.9531 7.57813 21.9922 7.53906 22.0703 7.53906C24.6484 6.44531 28.0859 7.03125 30.6641 9.14063C30.7422 9.21875 31.6406 10.0391 31.6797 10.1172C31.6797 10.1172 31.0547 8.90625 29.4141 7.89063C31.4453 8.86719 32.4219 10.3516 32.4219 10.3516C32.4219 10.3516 31.7187 8.90625 29.9609 7.77344C32.1094 9.21875 32.7344 10.3125 32.7344 10.3125C32.7344 10.3125 31.7578 8.20313 28.9063 6.83594C31.2109 7.69531 32.4609 9.21875 32.4609 9.21875C32.4609 9.21875 31.7578 8.125 30.3906 7.22656C31.7578 8.04688 32.6953 9.17969 32.6953 9.17969C32.6953 9.17969 32.6172 9.0625 32.4609 8.82813C32.6562 9.02344 32.7734 9.14063 32.7734 9.14063C32.7734 9.14063 31.9531 7.77344 30.2344 6.75781C32.7344 8.00781 33.125 9.25781 33.5156 9.49219C33.5156 9.49219 32.6953 7.85156 30.7422 6.60156C32.8516 7.89063 33.8672 9.45313 33.8672 9.45313C33.8672 9.45313 32.8125 7.14844 29.5703 5.54688C32.1875 6.5625 33.5547 8.28125 33.5547 8.28125C33.5547 8.28125 33.4375 8.125 33.2031 7.8125C32.3828 6.83594 31.4063 6.01563 30.1953 5.39063C30.5859 5.58594 31.9922 6.21094 33.4766 7.77344C33.75 8.04688 33.8672 8.20313 33.8672 8.20313C33.8672 8.20313 32.7734 6.40625 30.3906 5.15625C23.9453 1.75781 18.6719 5.78125 18.6719 5.78125Z" fill="#535963"/>
</g>
<defs>
<clipPath id="clip0_352_2">
<rect width="50" height="50" fill="white"/>
</clipPath>
</defs>
</svg>
