<svg width="62" height="62" viewBox="0 0 62 62" fill="none" xmlns="http://www.w3.org/2000/svg">
<path d="M46.5 62H27.3032C27.3032 62 28.4167 58.621 28.4167 55.5417C28.4167 51.9792 25.5182 49.0833 21.9583 49.0833C18.3985 49.0833 15.5 51.9792 15.5 55.5417C15.5 58.1586 16.6134 62 16.6134 62H0V21.9583C0 18.3959 2.8985 15.5 6.45833 15.5H13.9732C13.3197 12.9993 12.9167 10.5839 12.9167 9.04167C12.9167 4.05583 16.9725 0 21.9583 0C26.9442 0 31 4.05583 31 9.04167C31 10.5839 30.5996 12.9993 29.9434 15.5H40.0417C43.6015 15.5 46.5 18.3959 46.5 21.9583V29.4732C49.0033 28.8171 51.4187 28.4167 52.9583 28.4167C57.9442 28.4167 62 32.4725 62 37.4583C62 42.4442 57.9442 46.5 52.9583 46.5C51.4187 46.5 49.0033 46.0996 46.5 45.4434V62ZM30.535 59.4167H43.9167V41.9972C43.9167 41.9972 49.3494 43.9167 52.9583 43.9167C56.5182 43.9167 59.4167 41.0207 59.4167 37.4583C59.4167 33.8959 56.5182 31 52.9583 31C50.2097 31 43.9167 32.9194 43.9167 32.9194V21.9583C43.9167 19.8219 42.1781 18.0833 40.0417 18.0833H26.4947C26.4947 18.0833 28.4167 12.0564 28.4167 9.04167C28.4167 5.47925 25.5182 2.58333 21.9583 2.58333C18.3985 2.58333 15.5 5.47925 15.5 9.04167C15.5 12.1882 17.422 18.0833 17.422 18.0833H6.45833C4.32192 18.0833 2.58333 19.8219 2.58333 21.9583V59.4167H13.3817C13.082 57.8796 12.9167 56.5156 12.9167 55.5417C12.9167 50.5558 16.9725 46.5 21.9583 46.5C26.9442 46.5 31 50.5558 31 55.5417C31 56.5156 30.8347 57.8796 30.535 59.4167Z" fill="#3E185B"/>
</svg>
