<svg width="20" height="19" viewBox="0 0 20 19" fill="none" xmlns="http://www.w3.org/2000/svg">
<g clip-path="url(#clip0_51_113)">
<path d="M18.9422 6.9619C18.7802 6.44645 18.4567 5.99679 18.0194 5.67943C17.5822 5.36206 17.0544 5.19385 16.5141 5.19965H13.0553L12.0048 1.92532C11.8396 1.40991 11.515 0.960287 11.0777 0.641286C10.6405 0.322285 10.1132 0.150391 9.57199 0.150391C9.03076 0.150391 8.5035 0.322285 8.06627 0.641286C7.62903 0.960287 7.3044 1.40991 7.1392 1.92532L6.08866 5.19965H2.62987C2.09133 5.20042 1.56681 5.37135 1.13123 5.68803C0.695641 6.00472 0.371273 6.45095 0.204454 6.963C0.0376344 7.47505 0.036896 8.02672 0.202344 8.53921C0.367792 9.0517 0.690964 9.4988 1.1257 9.81665L3.94087 11.875L2.87053 15.1897C2.69756 15.7038 2.69537 16.26 2.86429 16.7755C3.0332 17.2909 3.36417 17.738 3.80787 18.05C4.24396 18.372 4.77243 18.5445 5.31453 18.5418C5.85663 18.5391 6.38335 18.3613 6.8162 18.0349L9.57199 16.0067L12.3286 18.0326C12.7639 18.3528 13.2895 18.5267 13.8299 18.5293C14.3702 18.5319 14.8975 18.3632 15.3359 18.0472C15.7743 17.7313 16.1013 17.2845 16.2697 16.771C16.4382 16.2576 16.4395 15.7039 16.2735 15.1897L15.2031 11.875L18.0215 9.81665C18.4612 9.50279 18.7881 9.0557 18.9539 8.54155C19.1198 8.0274 19.1156 7.47352 18.9422 6.9619ZM17.0873 8.53811L13.8066 10.9361C13.6719 11.0344 13.5716 11.1727 13.5201 11.3314C13.4687 11.49 13.4686 11.6609 13.52 11.8196L14.7669 15.675C14.83 15.8705 14.8295 16.081 14.7654 16.2763C14.7013 16.4715 14.5769 16.6414 14.4102 16.7614C14.2435 16.8815 14.043 16.9457 13.8375 16.9446C13.632 16.9436 13.4322 16.8774 13.2667 16.7556L10.0407 14.3806C9.90478 14.2808 9.74059 14.227 9.57199 14.227C9.4034 14.227 9.2392 14.2808 9.10332 14.3806L5.87728 16.7556C5.71189 16.879 5.51148 16.9466 5.30512 16.9485C5.09875 16.9503 4.89715 16.8864 4.72955 16.766C4.56194 16.6456 4.43704 16.4749 4.37296 16.2788C4.30887 16.0826 4.30892 15.8711 4.37312 15.675L5.62395 11.8196C5.67534 11.6609 5.6753 11.49 5.62384 11.3314C5.57238 11.1727 5.47212 11.0344 5.33737 10.9361L2.0567 8.53811C1.89148 8.41714 1.76872 8.24705 1.70594 8.05214C1.64317 7.85723 1.6436 7.64747 1.70717 7.45281C1.77073 7.25816 1.89419 7.08857 2.0599 6.96828C2.22561 6.84798 2.4251 6.78313 2.62987 6.78298H6.66737C6.83497 6.78298 6.99826 6.72978 7.1337 6.63104C7.26914 6.53231 7.36975 6.39314 7.42103 6.23357L8.64812 2.40903C8.7111 2.21331 8.83456 2.04264 9.00073 1.92156C9.16689 1.80048 9.36719 1.73524 9.57278 1.73524C9.77838 1.73524 9.97868 1.80048 10.1448 1.92156C10.311 2.04264 10.4345 2.21331 10.4974 2.40903L11.7245 6.23357C11.7758 6.39314 11.8764 6.53231 12.0119 6.63104C12.1473 6.72978 12.3106 6.78298 12.4782 6.78298H16.5157C16.7205 6.78313 16.92 6.84798 17.0857 6.96828C17.2514 7.08857 17.3748 7.25816 17.4384 7.45281C17.502 7.64747 17.5024 7.85723 17.4396 8.05214C17.3768 8.24705 17.2541 8.41714 17.0889 8.53811H17.0873Z" fill="#3E185B"/>
</g>
<defs>
<clipPath id="clip0_51_113">
<rect width="19" height="19" fill="white" transform="translate(0.0720215)"/>
</clipPath>
</defs>
</svg>
