<svg width="19" height="17" viewBox="0 0 19 17" fill="none" xmlns="http://www.w3.org/2000/svg">
<path d="M17.8821 7.07558L13.9375 10.8876L14.869 16.2718C14.889 16.3872 14.8759 16.5059 14.8314 16.6144C14.7869 16.7229 14.7126 16.8169 14.617 16.8857C14.5214 16.9546 14.4083 16.9955 14.2905 17.004C14.1726 17.0124 14.0547 16.988 13.9502 16.9335L9.07273 14.3915L4.19594 16.9328C4.09136 16.9874 3.97348 17.0118 3.85563 17.0033C3.73778 16.9949 3.62466 16.9539 3.52907 16.8851C3.43347 16.8163 3.35921 16.7223 3.31467 16.6138C3.27014 16.5053 3.25712 16.3866 3.27707 16.2711L4.20861 10.887L0.263354 7.07558C0.178673 6.99379 0.118778 6.89013 0.0904514 6.77633C0.0621244 6.66254 0.0664962 6.54315 0.103072 6.43169C0.139647 6.32023 0.206966 6.22115 0.297408 6.14566C0.387849 6.07016 0.497801 6.02128 0.614818 6.00454L6.06661 5.21977L8.50469 0.321596C8.7181 -0.107199 9.42736 -0.107199 9.64077 0.321596L12.0788 5.21977L17.5306 6.00454C17.6474 6.02172 17.757 6.07084 17.8471 6.14639C17.9373 6.22193 18.0044 6.3209 18.0409 6.43218C18.0774 6.54345 18.0819 6.66261 18.0538 6.77627C18.0258 6.88994 17.9663 6.99359 17.8821 7.07558Z" fill="#3E185B"/>
</svg>
