<svg width="30" height="45" viewBox="0 0 30 45" fill="none" xmlns="http://www.w3.org/2000/svg">
<path fill-rule="evenodd" clip-rule="evenodd" d="M9.56096 17.564C9.42105 17.423 9.25432 17.3116 9.07061 17.2362C8.88689 17.1607 8.68993 17.1229 8.49135 17.1249C8.29375 17.124 8.09795 17.1623 7.9153 17.2377C7.73265 17.3131 7.56679 17.424 7.42736 17.564L6.39152 18.6223L4.28607 16.5113C3.8682 16.0977 3.53648 15.6054 3.31009 15.0628C3.0837 14.5203 2.96714 13.9382 2.96714 13.3503C2.96714 12.7624 3.0837 12.1803 3.31009 11.6377C3.53648 11.0951 3.8682 10.6028 4.28607 10.1893C4.69844 9.77282 5.18943 9.44244 5.73054 9.21731C6.27165 8.99218 6.85209 8.87679 7.43816 8.87784C8.02423 8.87889 8.60425 8.99635 9.14455 9.22341C9.68485 9.45047 10.1747 9.78261 10.5855 10.2005L17.9321 17.6034C20.2402 19.9228 24.164 19.7877 26.8662 17.0855C29.5684 14.3833 29.7204 10.4595 27.4179 8.13448L19.8011 0.438874C19.6632 0.300258 19.4994 0.190157 19.319 0.114855C19.1386 0.0395541 18.9451 0.000528082 18.7496 5.32935e-06C18.3547 -0.00105042 17.9756 0.15479 17.6957 0.433245C17.4157 0.711699 17.2579 1.08996 17.2568 1.48481C17.2557 1.87966 17.4116 2.25875 17.69 2.5387L25.2956 10.223C26.4722 11.4053 26.6016 13.1504 24.772 14.98C22.9424 16.8096 21.2085 16.6745 20.0432 15.4979L12.691 8.1007C11.297 6.70578 9.40692 5.92017 7.43483 5.91595C5.46274 5.91173 3.56935 6.68924 2.16935 8.07818C0.779811 9.47761 0 11.3697 0 13.3418C0 15.3139 0.779811 17.206 2.16935 18.6055L4.30295 20.7447L3.2446 21.8199C2.68164 22.3998 2.68164 23.323 3.2446 23.9029L8.46883 29.2115C8.81786 29.5662 9.03178 29.9209 9.11623 30.1742C9.16378 30.2832 9.18643 30.4013 9.18253 30.5201C9.17864 30.639 9.14829 30.7554 9.09371 30.861C8.99801 31.0862 8.88542 31.3283 8.78971 31.5647C8.42131 32.4275 8.3172 33.3801 8.49057 34.3021C8.66394 35.2241 9.10699 36.0739 9.76363 36.7439C10.3435 37.335 11.0641 38.0443 11.6495 38.6242C11.5022 38.7604 11.3839 38.9249 11.3017 39.108C11.2194 39.291 11.175 39.4887 11.1709 39.6893C11.1669 39.8899 11.2033 40.0893 11.2781 40.2755C11.3529 40.4616 11.4645 40.6308 11.6062 40.7729C11.7478 40.915 11.9167 41.027 12.1027 41.1023C12.2887 41.1775 12.488 41.2145 12.6886 41.211C12.8892 41.2075 13.087 41.1636 13.2703 41.0818C13.4535 41.0001 13.6184 40.8822 13.755 40.7353L14.8133 39.6769L19.0242 43.8878C19.6041 44.4677 20.5442 44.4677 21.1241 43.8878C21.4008 43.6084 21.5561 43.2311 21.5561 42.8379C21.5561 42.4447 21.4008 42.0673 21.1241 41.788L16.9075 37.5771L23.2408 31.2607L27.4517 35.4716C27.7316 35.7516 28.1113 35.9088 28.5072 35.9088C28.9031 35.9088 29.2828 35.7516 29.5628 35.4716C29.8427 35.1917 30 34.812 30 34.4161C30 34.0202 29.8427 33.6405 29.5628 33.3605L25.3519 29.1496L26.399 28.0913C26.6026 27.8824 26.7406 27.6185 26.7958 27.3321C26.8511 27.0457 26.8211 26.7494 26.7097 26.4798C26.5983 26.2102 26.4103 25.9792 26.1689 25.8154C25.9276 25.6515 25.6435 25.562 25.3519 25.558C25.1556 25.5571 24.9611 25.5949 24.7795 25.6693C24.5979 25.7436 24.4327 25.8531 24.2935 25.9914L22.3401 24.038C21.079 22.7601 19.0918 22.1352 17.3016 22.929L16.5979 23.233C16.2951 23.3702 15.9571 23.4104 15.6305 23.3479C15.3039 23.2854 15.0047 23.1233 14.7739 22.8839L9.56096 17.564ZM8.49135 20.7447L10.5855 22.867L8.49135 24.9894L6.40841 22.867L8.49135 20.7447Z" fill="#3E185B"/>
</svg>
