<svg width="39" height="39" viewBox="0 0 39 39" fill="none" xmlns="http://www.w3.org/2000/svg">
<path d="M30.9867 13.033C30.9639 13.033 28.6483 12.9873 26.6754 11.54C24.9539 10.2832 24.3598 7.54863 24.2684 6.53555V6.39844H20.0789V24.474C20.0789 26.6449 18.3117 28.4121 16.1408 28.4121C13.9699 28.4121 12.2028 26.6449 12.2028 24.474C12.2028 22.3031 13.9699 20.5359 16.1408 20.5359H17.4662V16.3465H16.1408C11.6619 16.3465 8.01331 19.9951 8.01331 24.474C8.01331 28.9529 11.6619 32.6016 16.1408 32.6016C20.6198 32.6016 24.2684 28.9529 24.2684 24.474V14.9678C27.3076 17.1539 30.5983 17.2225 30.9791 17.2225V13.033H30.9867Z" fill="#4E286B"/>
</svg>
