<svg width="41" height="41" viewBox="0 0 41 41" fill="none" xmlns="http://www.w3.org/2000/svg">
<path d="M11.3594 21.9062V6.4375H1.51562V21.9062C1.51583 22.0927 1.58998 22.2714 1.7218 22.4032C1.85361 22.535 2.03233 22.6092 2.21875 22.6094H10.6562C10.8427 22.6092 11.0214 22.535 11.1532 22.4032C11.285 22.2714 11.3592 22.0927 11.3594 21.9062ZM9.87886 10.2676C9.83762 10.3502 9.78049 10.4239 9.71075 10.4845C9.641 10.545 9.56 10.5912 9.47238 10.6204C9.38476 10.6496 9.29225 10.6612 9.20013 10.6546C9.10801 10.648 9.01809 10.6234 8.93553 10.582L8.50583 10.3672C8.41286 10.8353 8.16405 11.2582 7.79996 11.5668C7.43588 11.8755 6.97798 12.0517 6.50092 12.0667C6.02386 12.0818 5.55576 11.9348 5.17293 11.6498C4.7901 11.3647 4.51512 10.9584 4.3928 10.497C4.27048 10.0357 4.30804 9.54649 4.49936 9.10921C4.69067 8.67193 5.02447 8.31235 5.44633 8.08908C5.86819 7.86581 6.35324 7.79202 6.82241 7.87974C7.29158 7.96745 7.7172 8.2115 8.0299 8.5721C8.07385 8.58405 9.56447 9.32427 9.56447 9.32427C9.73125 9.40768 9.85807 9.55392 9.91703 9.73082C9.97598 9.90773 9.96225 10.1008 9.87886 10.2676ZM0.8125 3.625H12.0625V5.03125H0.8125V3.625ZM39.0876 24.0156H8.58713C8.82285 26.0775 10.0887 28.0788 12.2111 29.7164C14.432 31.4301 17.2679 32.4531 19.7969 32.4531H26.8281C32.297 32.4531 36.3164 29.6901 39.0876 24.0156Z" fill="#3E185B"/>
<path d="M9.25 36.6719H15.3145L16.0678 33.8594H9.95312C9.02104 33.8583 8.12744 33.4876 7.46836 32.8285C6.80928 32.1694 6.43855 31.2758 6.4375 30.3438V24.0156H3.625V31.0469C3.62667 32.5382 4.21984 33.968 5.27437 35.0225C6.3289 36.077 7.75867 36.6702 9.25 36.6719ZM30.959 38.7812C30.8042 38.7813 30.6537 38.7302 30.5309 38.6359C30.4081 38.5417 30.3198 38.4096 30.2798 38.2601L29.0598 33.7055C28.3205 33.8091 27.5747 33.8605 26.8281 33.8594H19.7969C19.0535 33.8564 18.312 33.7841 17.582 33.6434L16.3452 38.2601C16.3052 38.4096 16.2169 38.5417 16.0941 38.6359C15.9713 38.7302 15.8208 38.7813 15.666 38.7812C15.2851 38.7817 14.9187 38.9275 14.6415 39.1888C14.3644 39.4501 14.1973 39.8073 14.1744 40.1875H32.4506C32.4277 39.8073 32.2606 39.4501 31.9835 39.1888C31.7063 38.9275 31.3399 38.7817 30.959 38.7812Z" fill="#3E185B"/>
<path d="M6.4375 10.6562C6.82583 10.6562 7.14062 10.3415 7.14062 9.95312C7.14062 9.5648 6.82583 9.25 6.4375 9.25C6.04917 9.25 5.73438 9.5648 5.73438 9.95312C5.73438 10.3415 6.04917 10.6562 6.4375 10.6562Z" fill="#3E185B"/>
<path d="M15.0086 1.43653C14.9896 1.253 14.8985 1.08452 14.7553 0.968164C14.6121 0.851805 14.4285 0.797094 14.245 0.816069C14.0615 0.835043 13.893 0.926148 13.7766 1.06934C13.6603 1.21253 13.6056 1.39609 13.6245 1.57962L15.5091 19.7969H16.9079L15.0086 1.43653ZM39.4843 21.2031H15.5781V22.6094H39.4843C39.6708 22.6094 39.8497 22.5353 39.9815 22.4034C40.1134 22.2716 40.1875 22.0927 40.1875 21.9063C40.1875 21.7198 40.1134 21.5409 39.9815 21.4091C39.8497 21.2772 39.6708 21.2031 39.4843 21.2031ZM38.0781 9.25001H37.375V8.54688C37.375 8.3604 37.3009 8.18156 37.169 8.0497C37.0372 7.91784 36.8583 7.84376 36.6718 7.84376C36.4854 7.84376 36.3065 7.91784 36.1747 8.0497C36.0428 8.18156 35.9687 8.3604 35.9687 8.54688V9.25001H35.2656C35.0791 9.25001 34.9003 9.32409 34.7684 9.45595C34.6365 9.58781 34.5625 9.76665 34.5625 9.95313C34.5625 10.1396 34.6365 10.3185 34.7684 10.4503C34.9003 10.5822 35.0791 10.6563 35.2656 10.6563H35.9687V11.3594C35.9687 11.5459 36.0428 11.7247 36.1747 11.8566C36.3065 11.9884 36.4854 12.0625 36.6718 12.0625C36.8583 12.0625 37.0372 11.9884 37.169 11.8566C37.3009 11.7247 37.375 11.5459 37.375 11.3594V10.6563H38.0781C38.2646 10.6563 38.4434 10.5822 38.5753 10.4503C38.7071 10.3185 38.7812 10.1396 38.7812 9.95313C38.7812 9.76665 38.7071 9.58781 38.5753 9.45595C38.4434 9.32409 38.2646 9.25001 38.0781 9.25001ZM26.8281 7.14063C25.9785 7.35301 25.2026 7.79231 24.5834 8.41154C23.9641 9.03078 23.5248 9.80667 23.3125 10.6563C23.1001 9.80667 22.6608 9.03078 22.0416 8.41154C21.4223 7.79231 20.6464 7.35301 19.7968 7.14063C20.6464 6.92825 21.4223 6.48896 22.0416 5.86973C22.6608 5.25049 23.1001 4.4746 23.3125 3.62501C23.5248 4.4746 23.9641 5.25049 24.5834 5.86973C25.2026 6.48896 25.9785 6.92825 26.8281 7.14063ZM28.2343 19.0938C28.016 18.4388 27.6482 17.8437 27.16 17.3556C26.6719 16.8674 26.0768 16.4996 25.4218 16.2813C26.0768 16.0629 26.6719 15.6951 27.16 15.207C27.6482 14.7188 28.016 14.1237 28.2343 13.4688C28.4527 14.1237 28.8205 14.7188 29.3086 15.207C29.7968 15.6951 30.3919 16.0629 31.0468 16.2813C30.3919 16.4996 29.7968 16.8674 29.3086 17.3556C28.8205 17.8437 28.4527 18.4388 28.2343 19.0938Z" fill="#3E185B"/>
</svg>
