<svg width="51" height="51" viewBox="0 0 51 51" fill="none" xmlns="http://www.w3.org/2000/svg">
<g clip-path="url(#clip0_332_56)">
<path d="M39.3024 13.8613C39.2494 13.705 39.1776 13.5558 39.0883 13.417L37.6986 16.5433L38.0217 16.4349C39.086 16.0779 39.6594 14.9255 39.3024 13.8613ZM34.4723 20.8566L27.4835 20.0829L23.939 13.2122L28.4384 18.2252L30.1452 18.4141L32.0392 14.1533L29.0342 15.1614L29.1856 14.4948C29.5565 12.8625 28.534 11.2386 26.9015 10.8677C26.9015 10.8677 23.5277 10.1712 22.0085 9.75596C20.66 9.3875 18.4639 9.92919 18.0039 11.9542C16.8273 17.1327 16.8716 16.9382 17.1868 15.5506L14.5586 27.1182L14.5657 27.1198L13.3872 35.7233L6.58074 47.4426C5.924 48.5734 6.3082 50.0225 7.43919 50.6793C8.57009 51.3362 10.0191 50.9519 10.676 49.8209L12.732 46.2809C12.6918 46.0923 12.6712 45.9001 12.6706 45.7072C12.6705 44.4646 13.4862 43.4091 14.6101 43.0469L17.717 37.6976C17.8721 37.4306 17.9734 37.1358 18.0154 36.8298L19.2011 28.1733L20.8711 28.5527L23.2423 33.9442L26.7487 26.0555L25.7382 25.9436C23.8717 25.7369 22.7049 24.2982 22.4771 23.3901L20.456 15.3283C24.6568 23.4715 24.38 22.9434 24.4563 23.0648C24.6187 23.3241 24.8377 23.5433 25.0969 23.7059C25.3561 23.8686 25.6487 23.9704 25.9528 24.0039L34.0255 24.8974C35.1476 25.0218 36.1464 24.2084 36.269 23.1006C36.3923 21.986 35.5894 20.9804 34.4723 20.8566Z" fill="#3E185B"/>
<path d="M18.004 11.9532C18.0061 11.944 18.0061 11.9443 18.004 11.9532V11.9532ZM29.1813 35.7052L25.9776 42.9128H27.1978C28.2085 42.9128 29.0955 43.4521 29.5865 44.2578C29.3003 35.7614 29.1813 35.7052 29.1813 35.7052Z" fill="#3E185B"/>
<path d="M26.3772 8.97322C28.8551 8.97322 30.8638 6.9645 30.8638 4.48661C30.8638 2.00872 28.8551 0 26.3772 0C23.8993 0 21.8906 2.00872 21.8906 4.48661C21.8906 6.9645 23.8993 8.97322 26.3772 8.97322Z" fill="#3E185B"/>
<path d="M37.7565 44.5134C37.0587 44.2981 36.3184 44.6893 36.1032 45.3872C36.0851 45.4474 36.0713 45.5088 36.062 45.5709C36.0573 45.5694 36.0529 45.5674 36.0481 45.5658C35.4489 45.3809 34.8134 45.7169 34.6285 46.3159C34.4768 46.8078 34.6764 47.3237 35.0843 47.5953C34.6725 48.2741 34.0032 48.8542 33.4666 49.2482C33.415 49.2861 33.3771 49.3396 33.3584 49.4007C33.3398 49.4619 33.3415 49.5275 33.3632 49.5876C33.3849 49.6478 33.4254 49.6993 33.4788 49.7345C33.5322 49.7697 33.5956 49.7867 33.6594 49.7829C35.6006 49.6702 36.8491 49.106 36.8491 49.106L36.8488 49.1054C37.4278 49.0948 37.9601 48.7178 38.1402 48.1343C38.2683 47.7191 38.1898 47.2897 37.9639 46.9558C38.1224 46.876 38.2631 46.7649 38.3777 46.6294C38.4922 46.4938 38.5781 46.3364 38.6303 46.1668C38.8455 45.4688 38.4544 44.7286 37.7565 44.5134ZM37.9482 8.42056C37.352 8.15539 36.654 8.42405 36.3891 9.02022L32.1164 18.6327L34.5804 18.9054L38.5478 9.97978C38.8128 9.38351 38.5444 8.68553 37.9482 8.42056ZM27.9284 46.8735C28.3164 46.6298 28.5751 46.1994 28.5751 45.7074C28.5751 44.9468 27.9584 44.3301 27.1978 44.3301H23.2793L31.1841 26.5465L28.72 26.2738C28.4615 26.8549 21.0138 43.6103 20.6938 44.3301H15.4652C14.7046 44.3301 14.0879 44.9468 14.0879 45.7074C14.0879 46.2294 14.3784 46.6834 14.8064 46.917L13.7673 50.1899C13.6466 50.5703 13.9311 50.9583 14.3297 50.9583H24.8866V48.2725L25.706 50.9583H28.419C28.818 50.9583 29.102 50.5698 28.9813 50.1899L27.9284 46.8735ZM44.7384 45.4361C44.7469 45.2787 44.7199 45.1214 44.6594 44.9759C44.5988 44.8304 44.5064 44.7003 44.3888 44.5953C44.4914 44.5067 44.5751 44.3983 44.6347 44.2765C44.6944 44.1547 44.7289 44.0221 44.736 43.8867C44.7658 43.3295 44.3383 42.8535 43.7811 42.8237C43.2238 42.7938 42.7478 43.2214 42.7181 43.7786C42.7154 43.8273 42.7175 43.8752 42.7218 43.9225C42.718 43.9223 42.7143 43.9215 42.7105 43.9213C42.4808 43.909 42.2555 43.9885 42.0844 44.1422C41.9132 44.296 41.8101 44.5114 41.7978 44.7412C41.7879 44.9279 41.8385 45.1128 41.9423 45.2684C42.046 45.424 42.1972 45.5419 42.3733 45.6046C42.1943 46.1844 41.8061 46.7388 41.4817 47.1305C41.4506 47.1681 41.4324 47.2148 41.43 47.2636C41.4276 47.3124 41.441 47.3607 41.4683 47.4012C41.4955 47.4418 41.5352 47.4724 41.5813 47.4886C41.6274 47.5047 41.6775 47.5056 41.7241 47.491C43.1419 47.0465 43.9623 46.3961 43.9623 46.3961L43.962 46.3958C44.389 46.2804 44.7134 45.9022 44.7384 45.4361Z" fill="#3E185B"/>
</g>
<defs>
<clipPath id="clip0_332_56">
<rect width="51" height="51" fill="white"/>
</clipPath>
</defs>
</svg>
