<svg width="40" height="40" viewBox="0 0 40 40" fill="none" xmlns="http://www.w3.org/2000/svg">
<g clip-path="url(#clip0_329_13)">
<path d="M37.3454 28.8788C35.8667 27.4001 33.8 26.8667 31.8909 27.2667L27.9454 23.3213H32.9939V23.3879C32.9939 23.756 33.1402 24.109 33.4004 24.3693C33.6607 24.6296 34.0137 24.7758 34.3818 24.7758H37.4848C38.2545 24.7758 38.8788 24.1516 38.8788 23.3879V11.7395C38.8788 10.9758 38.2545 10.3516 37.4848 10.3516H34.3818C34.0137 10.3516 33.6607 10.4978 33.4004 10.7581C33.1402 11.0184 32.9939 11.3714 32.9939 11.7395V11.8001H25.6545V6.8243H25.7151C26.0832 6.8243 26.4362 6.67808 26.6965 6.4178C26.9568 6.15752 27.103 5.80451 27.103 5.43642V2.32733C27.103 1.95924 26.9568 1.60623 26.6965 1.34595C26.4362 1.08568 26.0832 0.939453 25.7151 0.939453H14.0727C13.303 0.939453 12.6788 1.5637 12.6788 2.32733V5.43642C12.6788 6.20006 13.303 6.8243 14.0727 6.8243H14.1333V11.8001H6.79394V11.7395C6.79394 10.9758 6.16969 10.3516 5.40606 10.3516H2.29697C1.53333 10.3516 0.909088 10.9758 0.909088 11.7395V23.3879C0.909088 24.1516 1.53333 24.7758 2.29697 24.7758H5.40606C6.16969 24.7758 6.79394 24.1516 6.79394 23.3879V23.3213H12.6C12.3333 22.9576 12.103 22.5698 11.9091 22.1637H6.78788V12.9576H14.6788C14.6909 12.9576 14.697 12.9637 14.7091 12.9637H15.6606C15.6727 12.9091 15.6848 12.8667 15.703 12.8122C15.7662 12.6181 15.8538 12.4327 15.9636 12.2607C15.9939 12.2122 16.0303 12.1698 16.0606 12.1273C16.0848 12.091 16.1151 12.0546 16.1394 12.0182C16.1879 11.9576 16.2424 11.9031 16.297 11.8546C16.3151 11.8364 16.3273 11.8182 16.3455 11.8001H15.2848V6.8243H24.4909V11.8001H22.0121C22.0182 11.8001 22.0182 11.8061 22.0242 11.8061C22.0545 11.8182 22.0848 11.8364 22.1151 11.8485C22.7333 12.1395 23.3151 12.5031 23.8364 12.9516H23.8424L23.8485 12.9576H25.0727C25.0848 12.9576 25.0909 12.9516 25.103 12.9516H32.9939V22.1576H26.7879L24.6727 20.0425C25.0727 18.1334 24.5394 16.0667 23.0606 14.594C22.3833 13.9165 21.5525 13.4124 20.6389 13.1243C19.7252 12.8363 18.7555 12.7729 17.8121 12.9395C17.6 12.9758 17.4242 13.1273 17.3636 13.3334C17.297 13.5395 17.3515 13.7637 17.5091 13.9152L20.2364 16.6425L19.4848 19.4485L16.6848 20.2001L13.9515 17.4728C13.8765 17.3986 13.7829 17.346 13.6805 17.3204C13.5782 17.2948 13.4708 17.2972 13.3697 17.3273C13.1636 17.394 13.0121 17.5637 12.9758 17.7758C12.6788 19.4607 13.1273 21.1879 14.1818 22.5152C13.7636 23.2364 12.1455 26.0849 12.1455 27.2425C12.1455 28.6667 13.303 29.8243 14.7273 29.8243C16.1515 29.8243 17.3091 28.6667 17.3091 27.2425C17.3091 26.5395 16.7151 25.2122 16.1515 24.1152C17 24.5455 17.9273 24.7637 18.8606 24.7637C19.2727 24.7637 19.6909 24.7152 20.097 24.6304L27.3151 31.8485C26.9151 33.7576 27.4545 35.8243 28.9333 37.3031C29.4853 37.8595 30.1426 38.3005 30.8668 38.6002C31.5911 38.8999 32.3677 39.0523 33.1515 39.0485C34.7394 39.0485 36.2424 38.4304 37.3697 37.3031C38.5333 36.1395 39.1151 34.6122 39.1151 33.0849C39.1151 31.5576 38.503 30.0425 37.3454 28.8788ZM16.1333 27.2485C16.1333 28.0304 15.497 28.6728 14.7091 28.6728C13.9273 28.6728 13.2848 28.0364 13.2848 27.2485C13.2848 26.7213 14.0121 25.2001 14.7091 23.9152C15.4121 25.2001 16.1333 26.7273 16.1333 27.2485ZM20.7636 23.2122C20.7333 23.2243 20.703 23.2425 20.6727 23.2546C20.497 23.3273 20.3151 23.3879 20.1333 23.4364C18.5151 23.8849 16.7091 23.4788 15.4364 22.2122C14.6331 21.4074 14.1394 20.3451 14.0424 19.2122L16.0848 21.2546C16.2303 21.4001 16.4424 21.4607 16.6424 21.4061L20.0909 20.4849C20.2909 20.4304 20.4485 20.2788 20.503 20.0788L21.4242 16.6304C21.4504 16.5323 21.4501 16.4291 21.4235 16.3312C21.3969 16.2333 21.3449 16.1441 21.2727 16.0728L19.2303 14.0304C20.3515 14.1213 21.4182 14.6061 22.2303 15.4243C23.503 16.697 23.9091 18.5091 23.4545 20.1273C23.4061 20.3091 23.3455 20.4849 23.2727 20.6607C23.2606 20.691 23.2485 20.7152 23.2364 20.7395C23.1697 20.8849 23.103 21.0304 23.0242 21.1698C23 21.2182 22.9697 21.2667 22.9394 21.3091C22.8667 21.4304 22.7879 21.5455 22.703 21.6607L22.6121 21.7879C22.3809 22.0916 22.1098 22.3628 21.8061 22.594C21.7636 22.6304 21.7212 22.6546 21.6788 22.691C21.5636 22.7758 21.4485 22.8485 21.3333 22.9213C21.2848 22.9516 21.2364 22.9819 21.1879 23.0061C21.0485 23.0788 20.9091 23.1516 20.7636 23.2122ZM29.4606 28.394C29.4182 28.4243 29.3758 28.4546 29.3333 28.491C29.1879 28.6122 29.0424 28.7395 28.9091 28.8728L28.903 28.8788C28.8909 28.891 28.8848 28.897 28.8788 28.9091C28.7515 29.0364 28.6364 29.1637 28.5212 29.3031C28.4727 29.3637 28.4242 29.4304 28.3758 29.491C28.3091 29.5758 28.2424 29.6667 28.1818 29.7516C28.1333 29.8243 28.0848 29.9031 28.0424 29.9758C27.9879 30.0607 27.9394 30.1455 27.8909 30.2364C27.8485 30.3152 27.8121 30.3879 27.7697 30.4667C27.7454 30.5213 27.7151 30.5698 27.6909 30.6243L21.3091 24.2425C21.3636 24.2182 21.4182 24.1879 21.4727 24.1576C21.5455 24.1213 21.6182 24.0849 21.697 24.0425C21.7879 23.994 21.8788 23.9395 21.9697 23.8849C22.0424 23.8425 22.1091 23.8001 22.1818 23.7516C22.2788 23.6849 22.3697 23.6122 22.4667 23.5455C22.5212 23.5031 22.5818 23.4607 22.6364 23.4182C22.7818 23.297 22.9273 23.1698 23.0606 23.0364C23.1939 22.9031 23.3212 22.7576 23.4424 22.6122C23.4909 22.5516 23.5333 22.491 23.5758 22.4364C23.6424 22.3455 23.7151 22.2546 23.7758 22.1637C23.8242 22.091 23.8667 22.0182 23.9151 21.9455C23.9697 21.8607 24.0242 21.7698 24.0727 21.6849C24.1151 21.6061 24.1515 21.5334 24.1879 21.4546C24.2121 21.4001 24.2424 21.3516 24.2667 21.297L30.6485 27.6788C30.5758 27.7091 30.5091 27.7516 30.4424 27.7819C30.3879 27.8061 30.3394 27.8364 30.2848 27.8607C30.1697 27.9213 30.0606 27.9879 29.9454 28.0607C29.8909 28.091 29.8424 28.1213 29.7879 28.1576C29.6848 28.2243 29.5697 28.3031 29.4606 28.394ZM35.4242 35.3879C34.7879 36.0243 33.9636 36.3395 33.1273 36.3395C32.2909 36.3395 31.4606 36.0243 30.8303 35.3879C30.2121 34.7758 29.8788 33.9576 29.8788 33.091C29.8788 32.2243 30.2121 31.4061 30.8303 30.794C32.103 29.5273 34.1636 29.5273 35.4303 30.794C35.7327 31.0951 35.9724 31.4531 36.1358 31.8473C36.2991 32.2416 36.3827 32.6642 36.3818 33.091C36.3797 33.9533 36.0353 34.7795 35.4242 35.3879Z" fill="#3E185B"/>
<path d="M18.3455 29.5455C18 30.1334 16.2667 33.1455 16.2667 34.3455C16.2667 35.7697 17.4242 36.9273 18.8485 36.9273C20.2727 36.9273 21.4303 35.7697 21.4303 34.3455C21.4303 33.1455 19.697 30.1334 19.3515 29.5455C19.1333 29.194 18.5515 29.194 18.3455 29.5455ZM18.8424 35.7697C18.0606 35.7697 17.4182 35.1334 17.4182 34.3455C17.4182 33.8182 18.1455 32.297 18.8424 31.0122C19.5394 32.297 20.2667 33.8182 20.2667 34.3455C20.2667 35.1334 19.6242 35.7697 18.8424 35.7697Z" fill="#3E185B"/>
</g>
<defs>
<clipPath id="clip0_329_13">
<rect width="40" height="40" fill="white"/>
</clipPath>
</defs>
</svg>
